0
SECTION
2
HEADER
9
$INSUNITS
70
4
9
$ACADVER
1
AC1014
9
$HANDSEED
5
FFFF
0
ENDSEC
0
SECTION
2
TABLES
0
TABLE
2
VPORT
5
8
100
AcDbSymbolTable
0
ENDTAB
0
TABLE
2
LTYPE
5
5
100
AcDbSymbolTable
0
LTYPE
5
14
100
AcDbSymbolTableRecord
100
AcDbLinetypeTableRecord
2
BYBLOCK
70
0
0
LTYPE
5
15
100
AcDbSymbolTableRecord
100
AcDbLinetypeTableRecord
2
BYLAYER
70
0
0
ENDTAB
0
TABLE
2
LAYER
5
2
100
AcDbSymbolTable
70
2
0
LAYER
5
50
100
AcDbSymbolTableRecord
100
AcDbLayerTableRecord
2
0
70
0
6
CONTINUOUS
0
ENDTAB
0
TABLE
2
STYLE
5
3
100
AcDbSymbolTable
70
1
0
STYLE
5
11
100
AcDbSymbolTableRecord
100
AcDbTextStyleTableRecord
2
STANDARD
70
0
0
ENDTAB
0
TABLE
2
VIEW
5
6
100
AcDbSymbolTable
70
0
0
ENDTAB
0
TABLE
2
UCS
5
7
100
AcDbSymbolTable
70
0
0
ENDTAB
0
TABLE
2
APPID
5
9
100
AcDbSymbolTable
70
2
0
APPID
5
12
100
AcDbSymbolTableRecord
100
AcDbRegAppTableRecord
2
ACAD
70
0
0
ENDTAB
0
TABLE
2
DIMSTYLE
5
A
100
AcDbSymbolTable
70
1
0
ENDTAB
0
TABLE
2
BLOCK_RECORD
5
1
100
AcDbSymbolTable
70
1
0
BLOCK_RECORD
5
1F
100
AcDbSymbolTableRecord
100
AcDbBlockTableRecord
2
*MODEL_SPACE
0
BLOCK_RECORD
5
1B
100
AcDbSymbolTableRecord
100
AcDbBlockTableRecord
2
*PAPER_SPACE
0
ENDTAB
0
ENDSEC
0
SECTION
2
BLOCKS
0
BLOCK
5
20
100
AcDbEntity
100
AcDbBlockBegin
2
*MODEL_SPACE
0
ENDBLK
5
21
100
AcDbEntity
100
AcDbBlockEnd
0
BLOCK
5
1C
100
AcDbEntity
100
AcDbBlockBegin
2
*PAPER_SPACE
0
ENDBLK
5
1D
100
AcDbEntity
100
AcDbBlockEnd
0
ENDSEC
0
SECTION
2
ENTITIES
0
LINE
5
100
100
AcDbEntity
8
0
100
AcDbLine
10
0.7250000000000012
20
-0.72500000000000009
30
0
11
-0.72500000000000009
21
-0.72500000000000009
31
0
0
LINE
5
101
100
AcDbEntity
8
0
100
AcDbLine
10
-0.72500000000000009
20
-0.72500000000000009
30
0
11
-0.72500000000000009
21
0.72500000000000009
31
0
0
LINE
5
102
100
AcDbEntity
8
0
100
AcDbLine
10
-0.72500000000000009
20
0.72500000000000009
30
0
11
0.7250000000000012
21
0.72500000000000009
31
0
0
LINE
5
103
100
AcDbEntity
8
0
100
AcDbLine
10
0.7250000000000012
20
0.72500000000000009
30
0
11
0.7250000000000012
21
-0.72500000000000009
31
0
0
LINE
5
104
100
AcDbEntity
8
0
100
AcDbLine
10
0.7250000000000012
20
-0.72500000000000009
30
0
11
-0.72500000000000009
21
0.72500000000000009
31
0
0
LINE
5
105
100
AcDbEntity
8
0
100
AcDbLine
10
-0.72500000000000009
20
-0.72500000000000009
30
0
11
0.7250000000000012
21
0.72500000000000009
31
0
0
LINE
5
106
100
AcDbEntity
8
0
100
AcDbLine
10
0.19999999999999996
20
4.5000000000000009
30
0
11
-0.2000000000000004
21
4.5000000000000009
31
0
0
LINE
5
107
100
AcDbEntity
8
0
100
AcDbLine
10
-0.2000000000000004
20
4.5000000000000009
30
0
11
-0.20000000000000051
21
5.3000000000000016
31
0
0
LINE
5
108
100
AcDbEntity
8
0
100
AcDbLine
10
-0.20000000000000051
20
5.3000000000000016
30
0
11
0.19999999999999996
21
5.3000000000000016
31
0
0
LINE
5
109
100
AcDbEntity
8
0
100
AcDbLine
10
0.19999999999999996
20
5.3000000000000016
30
0
11
0.19999999999999996
21
4.5000000000000009
31
0
0
LINE
5
110
100
AcDbEntity
8
0
100
AcDbLine
10
0.19999999999999996
20
4.5000000000000009
30
0
11
-0.20000000000000051
21
5.3000000000000016
31
0
0
LINE
5
111
100
AcDbEntity
8
0
100
AcDbLine
10
-0.2000000000000004
20
4.5000000000000009
30
0
11
0.19999999999999996
21
5.3000000000000016
31
0
0
LINE
5
112
100
AcDbEntity
8
0
100
AcDbLine
10
6.2999999999999998
20
-0.19999999999999996
30
0
11
5.4999999999999991
21
-0.19999999999999996
31
0
0
LINE
5
113
100
AcDbEntity
8
0
100
AcDbLine
10
5.4999999999999991
20
-0.19999999999999996
30
0
11
5.4999999999999991
21
0.20000000000000029
31
0
0
LINE
5
114
100
AcDbEntity
8
0
100
AcDbLine
10
5.4999999999999991
20
0.20000000000000029
30
0
11
6.2999999999999998
21
0.20000000000000029
31
0
0
LINE
5
115
100
AcDbEntity
8
0
100
AcDbLine
10
6.2999999999999998
20
0.20000000000000029
30
0
11
6.2999999999999998
21
-0.19999999999999996
31
0
0
LINE
5
116
100
AcDbEntity
8
0
100
AcDbLine
10
6.2999999999999998
20
-0.19999999999999996
30
0
11
5.4999999999999991
21
0.20000000000000029
31
0
0
LINE
5
117
100
AcDbEntity
8
0
100
AcDbLine
10
5.4999999999999991
20
-0.19999999999999996
30
0
11
6.2999999999999998
21
0.20000000000000029
31
0
0
LINE
5
118
100
AcDbEntity
8
0
100
AcDbLine
10
-1.2499999999999989
20
-2.7000000000000002
30
0
11
-2.7000000000000002
21
-2.7000000000000002
31
0
0
LINE
5
119
100
AcDbEntity
8
0
100
AcDbLine
10
-1.2499999999999989
20
-1.25
30
0
11
-1.2499999999999989
21
-2.7000000000000002
31
0
0
LINE
5
120
100
AcDbEntity
8
0
100
AcDbLine
10
-1.2499999999999989
20
-2.7000000000000002
30
0
11
-2.7000000000000002
21
-1.25
31
0
0
LINE
5
121
100
AcDbEntity
8
0
100
AcDbLine
10
-2.7000000000000002
20
-2.7000000000000002
30
0
11
-1.2499999999999989
21
-1.25
31
0
0
LINE
5
122
100
AcDbEntity
8
0
100
AcDbLine
10
-2.7000000000000002
20
-1.25
30
0
11
-1.2499999999999989
21
-1.25
31
0
0
LINE
5
123
100
AcDbEntity
8
0
100
AcDbLine
10
-2.7000000000000002
20
-2.7000000000000002
30
0
11
-2.7000000000000002
21
-1.25
31
0
0
LINE
5
124
100
AcDbEntity
8
0
100
AcDbLine
10
0.7250000000000012
20
-2.7000000000000002
30
0
11
-0.72500000000000009
21
-2.7000000000000002
31
0
0
LINE
5
125
100
AcDbEntity
8
0
100
AcDbLine
10
0.7250000000000012
20
-1.25
30
0
11
0.7250000000000012
21
-2.7000000000000002
31
0
0
LINE
5
126
100
AcDbEntity
8
0
100
AcDbLine
10
0.7250000000000012
20
-2.7000000000000002
30
0
11
-0.72500000000000009
21
-1.25
31
0
0
LINE
5
127
100
AcDbEntity
8
0
100
AcDbLine
10
-0.72500000000000009
20
-2.7000000000000002
30
0
11
0.7250000000000012
21
-1.25
31
0
0
LINE
5
128
100
AcDbEntity
8
0
100
AcDbLine
10
-0.72500000000000009
20
-1.25
30
0
11
0.7250000000000012
21
-1.25
31
0
0
LINE
5
129
100
AcDbEntity
8
0
100
AcDbLine
10
-0.72500000000000009
20
-2.7000000000000002
30
0
11
-0.72500000000000009
21
-1.25
31
0
0
LINE
5
130
100
AcDbEntity
8
0
100
AcDbLine
10
2.7000000000000011
20
-2.7000000000000002
30
0
11
1.25
21
-2.7000000000000002
31
0
0
LINE
5
131
100
AcDbEntity
8
0
100
AcDbLine
10
2.7000000000000011
20
-1.25
30
0
11
2.7000000000000011
21
-2.7000000000000002
31
0
0
LINE
5
132
100
AcDbEntity
8
0
100
AcDbLine
10
2.7000000000000011
20
-2.7000000000000002
30
0
11
1.25
21
-1.25
31
0
0
LINE
5
133
100
AcDbEntity
8
0
100
AcDbLine
10
1.25
20
-2.7000000000000002
30
0
11
2.7000000000000011
21
-1.25
31
0
0
LINE
5
134
100
AcDbEntity
8
0
100
AcDbLine
10
1.25
20
-1.25
30
0
11
2.7000000000000011
21
-1.25
31
0
0
LINE
5
135
100
AcDbEntity
8
0
100
AcDbLine
10
1.25
20
-2.7000000000000002
30
0
11
1.25
21
-1.25
31
0
0
LINE
5
136
100
AcDbEntity
8
0
100
AcDbLine
10
-1.2499999999999989
20
-0.72500000000000009
30
0
11
-2.7000000000000002
21
-0.72500000000000009
31
0
0
LINE
5
137
100
AcDbEntity
8
0
100
AcDbLine
10
-1.2499999999999989
20
0.72500000000000009
30
0
11
-1.2499999999999989
21
-0.72500000000000009
31
0
0
LINE
5
138
100
AcDbEntity
8
0
100
AcDbLine
10
-1.2499999999999989
20
-0.72500000000000009
30
0
11
-2.7000000000000002
21
0.72500000000000009
31
0
0
LINE
5
139
100
AcDbEntity
8
0
100
AcDbLine
10
-2.7000000000000002
20
-0.72500000000000009
30
0
11
-1.2499999999999989
21
0.72500000000000009
31
0
0
LINE
5
140
100
AcDbEntity
8
0
100
AcDbLine
10
-2.7000000000000002
20
0.72500000000000009
30
0
11
-1.2499999999999989
21
0.72500000000000009
31
0
0
LINE
5
141
100
AcDbEntity
8
0
100
AcDbLine
10
-2.7000000000000002
20
-0.72500000000000009
30
0
11
-2.7000000000000002
21
0.72500000000000009
31
0
0
LINE
5
142
100
AcDbEntity
8
0
100
AcDbLine
10
2.7000000000000011
20
-0.72500000000000009
30
0
11
1.25
21
-0.72500000000000009
31
0
0
LINE
5
143
100
AcDbEntity
8
0
100
AcDbLine
10
2.7000000000000011
20
0.72500000000000009
30
0
11
2.7000000000000011
21
-0.72500000000000009
31
0
0
LINE
5
144
100
AcDbEntity
8
0
100
AcDbLine
10
2.7000000000000011
20
-0.72500000000000009
30
0
11
1.25
21
0.72500000000000009
31
0
0
LINE
5
145
100
AcDbEntity
8
0
100
AcDbLine
10
1.25
20
-0.72500000000000009
30
0
11
2.7000000000000011
21
0.72500000000000009
31
0
0
LINE
5
146
100
AcDbEntity
8
0
100
AcDbLine
10
1.25
20
0.72500000000000009
30
0
11
2.7000000000000011
21
0.72500000000000009
31
0
0
LINE
5
147
100
AcDbEntity
8
0
100
AcDbLine
10
1.25
20
-0.72500000000000009
30
0
11
1.25
21
0.72500000000000009
31
0
0
LINE
5
148
100
AcDbEntity
8
0
100
AcDbLine
10
-1.2499999999999989
20
1.25
30
0
11
-2.7000000000000002
21
1.25
31
0
0
LINE
5
149
100
AcDbEntity
8
0
100
AcDbLine
10
-1.2499999999999989
20
2.7000000000000002
30
0
11
-1.2499999999999989
21
1.25
31
0
0
LINE
5
150
100
AcDbEntity
8
0
100
AcDbLine
10
-1.2499999999999989
20
1.25
30
0
11
-2.7000000000000002
21
2.7000000000000002
31
0
0
LINE
5
151
100
AcDbEntity
8
0
100
AcDbLine
10
-2.7000000000000002
20
1.25
30
0
11
-1.2499999999999989
21
2.7000000000000002
31
0
0
LINE
5
152
100
AcDbEntity
8
0
100
AcDbLine
10
-2.7000000000000002
20
2.7000000000000002
30
0
11
-1.2499999999999989
21
2.7000000000000002
31
0
0
LINE
5
153
100
AcDbEntity
8
0
100
AcDbLine
10
-2.7000000000000002
20
1.25
30
0
11
-2.7000000000000002
21
2.7000000000000002
31
0
0
LINE
5
154
100
AcDbEntity
8
0
100
AcDbLine
10
0.7250000000000012
20
1.25
30
0
11
-0.72500000000000009
21
1.25
31
0
0
LINE
5
155
100
AcDbEntity
8
0
100
AcDbLine
10
0.7250000000000012
20
2.7000000000000002
30
0
11
0.7250000000000012
21
1.25
31
0
0
LINE
5
156
100
AcDbEntity
8
0
100
AcDbLine
10
0.7250000000000012
20
1.25
30
0
11
-0.72500000000000009
21
2.7000000000000002
31
0
0
LINE
5
157
100
AcDbEntity
8
0
100
AcDbLine
10
-0.72500000000000009
20
1.25
30
0
11
0.7250000000000012
21
2.7000000000000002
31
0
0
LINE
5
158
100
AcDbEntity
8
0
100
AcDbLine
10
-0.72500000000000009
20
2.7000000000000002
30
0
11
0.7250000000000012
21
2.7000000000000002
31
0
0
LINE
5
159
100
AcDbEntity
8
0
100
AcDbLine
10
-0.72500000000000009
20
1.25
30
0
11
-0.72500000000000009
21
2.7000000000000002
31
0
0
LINE
5
160
100
AcDbEntity
8
0
100
AcDbLine
10
2.7000000000000011
20
1.25
30
0
11
1.25
21
1.25
31
0
0
LINE
5
161
100
AcDbEntity
8
0
100
AcDbLine
10
2.7000000000000011
20
2.7000000000000002
30
0
11
2.7000000000000011
21
1.25
31
0
0
LINE
5
162
100
AcDbEntity
8
0
100
AcDbLine
10
2.7000000000000011
20
1.25
30
0
11
1.25
21
2.7000000000000002
31
0
0
LINE
5
163
100
AcDbEntity
8
0
100
AcDbLine
10
1.25
20
1.25
30
0
11
2.7000000000000011
21
2.7000000000000002
31
0
0
LINE
5
164
100
AcDbEntity
8
0
100
AcDbLine
10
1.25
20
2.7000000000000002
30
0
11
2.7000000000000011
21
2.7000000000000002
31
0
0
LINE
5
165
100
AcDbEntity
8
0
100
AcDbLine
10
1.25
20
1.25
30
0
11
1.25
21
2.7000000000000002
31
0
0
LINE
5
166
100
AcDbEntity
8
0
100
AcDbLine
10
-2.7000000000000002
20
2.25
30
0
11
-2.25
21
2.7000000000000002
31
0
0
LINE
5
167
100
AcDbEntity
8
0
100
AcDbLine
10
20
20
0
30
0
11
2.5
21
0
31
0
0
LINE
5
168
100
AcDbEntity
8
0
100
AcDbLine
10
0.20000000000000018
20
-5.3000000000000016
30
0
11
0.20000000000000018
21
-4.5000000000000009
31
0
0
LINE
5
169
100
AcDbEntity
8
0
100
AcDbLine
10
-0.20000000000000018
20
-4.5000000000000009
30
0
11
0.20000000000000018
21
-5.3000000000000016
31
0
0
LINE
5
170
100
AcDbEntity
8
0
100
AcDbLine
10
0.20000000000000018
20
-4.5000000000000009
30
0
11
-0.20000000000000018
21
-5.3000000000000016
31
0
0
LINE
5
171
100
AcDbEntity
8
0
100
AcDbLine
10
0.20000000000000018
20
-4.5000000000000009
30
0
11
-0.20000000000000018
21
-4.5000000000000009
31
0
0
LINE
5
172
100
AcDbEntity
8
0
100
AcDbLine
10
-0.20000000000000018
20
-4.5000000000000009
30
0
11
-0.20000000000000018
21
-5.3000000000000016
31
0
0
LINE
5
173
100
AcDbEntity
8
0
100
AcDbLine
10
-0.20000000000000018
20
-5.3000000000000016
30
0
11
0.20000000000000018
21
-5.3000000000000016
31
0
0
LINE
5
174
100
AcDbEntity
8
0
100
AcDbLine
10
0
20
2.5
30
0
11
0
21
20
31
0
0
LINE
5
175
100
AcDbEntity
8
0
100
AcDbLine
10
-6.2999999999999998
20
-0.20000000000000018
30
0
11
-5.4999999999999991
21
-0.20000000000000018
31
0
0
LINE
5
176
100
AcDbEntity
8
0
100
AcDbLine
10
-5.4999999999999991
20
-0.20000000000000018
30
0
11
-6.2999999999999998
21
0.20000000000000018
31
0
0
LINE
5
177
100
AcDbEntity
8
0
100
AcDbLine
10
-6.2999999999999998
20
-0.20000000000000018
30
0
11
-5.4999999999999991
21
0.20000000000000018
31
0
0
LINE
5
178
100
AcDbEntity
8
0
100
AcDbLine
10
-6.2999999999999998
20
0.20000000000000018
30
0
11
-6.2999999999999998
21
-0.20000000000000018
31
0
0
LINE
5
179
100
AcDbEntity
8
0
100
AcDbLine
10
-5.4999999999999991
20
0.20000000000000018
30
0
11
-6.2999999999999998
21
0.20000000000000018
31
0
0
LINE
5
180
100
AcDbEntity
8
0
100
AcDbLine
10
-5.4999999999999991
20
-0.20000000000000018
30
0
11
-5.4999999999999991
21
0.20000000000000018
31
0
0
LINE
5
181
100
AcDbEntity
8
0
100
AcDbLine
10
6.2999999999999998
20
-4.2000000000000011
30
0
11
5.4999999999999991
21
-4.2000000000000011
31
0
0
LINE
5
182
100
AcDbEntity
8
0
100
AcDbLine
10
6.2999999999999998
20
-3.8000000000000007
30
0
11
6.2999999999999998
21
-4.2000000000000011
31
0
0
LINE
5
183
100
AcDbEntity
8
0
100
AcDbLine
10
6.2999999999999998
20
-4.2000000000000011
30
0
11
5.4999999999999991
21
-3.8000000000000007
31
0
0
LINE
5
184
100
AcDbEntity
8
0
100
AcDbLine
10
5.4999999999999991
20
-4.2000000000000011
30
0
11
6.2999999999999998
21
-3.8000000000000007
31
0
0
LINE
5
185
100
AcDbEntity
8
0
100
AcDbLine
10
5.4999999999999991
20
-4.2000000000000011
30
0
11
5.4999999999999991
21
-3.8000000000000007
31
0
0
LINE
5
186
100
AcDbEntity
8
0
100
AcDbLine
10
5.4999999999999991
20
-3.8000000000000007
30
0
11
6.2999999999999998
21
-3.8000000000000007
31
0
0
LINE
5
187
100
AcDbEntity
8
0
100
AcDbLine
10
-6.2999999999999998
20
-4.2000000000000011
30
0
11
-5.4999999999999991
21
-4.2000000000000011
31
0
0
LINE
5
188
100
AcDbEntity
8
0
100
AcDbLine
10
-6.2999999999999998
20
-4.2000000000000011
30
0
11
-5.4999999999999991
21
-3.8000000000000007
31
0
0
LINE
5
189
100
AcDbEntity
8
0
100
AcDbLine
10
-5.4999999999999991
20
-4.2000000000000011
30
0
11
-6.2999999999999998
21
-3.8000000000000007
31
0
0
LINE
5
190
100
AcDbEntity
8
0
100
AcDbLine
10
-5.4999999999999991
20
-4.2000000000000011
30
0
11
-5.4999999999999991
21
-3.8000000000000007
31
0
0
LINE
5
191
100
AcDbEntity
8
0
100
AcDbLine
10
-5.4999999999999991
20
-3.8000000000000007
30
0
11
-6.2999999999999998
21
-3.8000000000000007
31
0
0
LINE
5
192
100
AcDbEntity
8
0
100
AcDbLine
10
-6.2999999999999998
20
-3.8000000000000007
30
0
11
-6.2999999999999998
21
-4.2000000000000011
31
0
0
LINE
5
193
100
AcDbEntity
8
0
100
AcDbLine
10
6.2999999999999998
20
-3.4000000000000008
30
0
11
5.4999999999999991
21
-3.4000000000000008
31
0
0
LINE
5
194
100
AcDbEntity
8
0
100
AcDbLine
10
6.2999999999999998
20
-3.0000000000000004
30
0
11
6.2999999999999998
21
-3.4000000000000008
31
0
0
LINE
5
195
100
AcDbEntity
8
0
100
AcDbLine
10
6.2999999999999998
20
-3.4000000000000008
30
0
11
5.4999999999999991
21
-3.0000000000000004
31
0
0
LINE
5
196
100
AcDbEntity
8
0
100
AcDbLine
10
5.4999999999999991
20
-3.4000000000000008
30
0
11
6.2999999999999998
21
-3.0000000000000004
31
0
0
LINE
5
197
100
AcDbEntity
8
0
100
AcDbLine
10
5.4999999999999991
20
-3.4000000000000008
30
0
11
5.4999999999999991
21
-3.0000000000000004
31
0
0
LINE
5
198
100
AcDbEntity
8
0
100
AcDbLine
10
5.4999999999999991
20
-3.0000000000000004
30
0
11
6.2999999999999998
21
-3.0000000000000004
31
0
0
LINE
5
199
100
AcDbEntity
8
0
100
AcDbLine
10
-6.2999999999999998
20
-3.4000000000000008
30
0
11
-5.4999999999999991
21
-3.4000000000000008
31
0
0
LINE
5
200
100
AcDbEntity
8
0
100
AcDbLine
10
-6.2999999999999998
20
-3.4000000000000008
30
0
11
-5.4999999999999991
21
-3.0000000000000004
31
0
0
LINE
5
201
100
AcDbEntity
8
0
100
AcDbLine
10
-5.4999999999999991
20
-3.4000000000000008
30
0
11
-6.2999999999999998
21
-3.0000000000000004
31
0
0
LINE
5
202
100
AcDbEntity
8
0
100
AcDbLine
10
-5.4999999999999991
20
-3.4000000000000008
30
0
11
-5.4999999999999991
21
-3.0000000000000004
31
0
0
LINE
5
203
100
AcDbEntity
8
0
100
AcDbLine
10
-5.4999999999999991
20
-3.0000000000000004
30
0
11
-6.2999999999999998
21
-3.0000000000000004
31
0
0
LINE
5
204
100
AcDbEntity
8
0
100
AcDbLine
10
-6.2999999999999998
20
-3.0000000000000004
30
0
11
-6.2999999999999998
21
-3.4000000000000008
31
0
0
LINE
5
205
100
AcDbEntity
8
0
100
AcDbLine
10
6.2999999999999998
20
-2.6000000000000005
30
0
11
5.4999999999999991
21
-2.6000000000000005
31
0
0
LINE
5
206
100
AcDbEntity
8
0
100
AcDbLine
10
6.2999999999999998
20
-2.2000000000000002
30
0
11
6.2999999999999998
21
-2.6000000000000005
31
0
0
LINE
5
207
100
AcDbEntity
8
0
100
AcDbLine
10
6.2999999999999998
20
-2.6000000000000005
30
0
11
5.4999999999999991
21
-2.2000000000000002
31
0
0
LINE
5
208
100
AcDbEntity
8
0
100
AcDbLine
10
5.4999999999999991
20
-2.6000000000000005
30
0
11
6.2999999999999998
21
-2.2000000000000002
31
0
0
LINE
5
209
100
AcDbEntity
8
0
100
AcDbLine
10
5.4999999999999991
20
-2.6000000000000005
30
0
11
5.4999999999999991
21
-2.2000000000000002
31
0
0
LINE
5
210
100
AcDbEntity
8
0
100
AcDbLine
10
5.4999999999999991
20
-2.2000000000000002
30
0
11
6.2999999999999998
21
-2.2000000000000002
31
0
0
LINE
5
211
100
AcDbEntity
8
0
100
AcDbLine
10
-6.2999999999999998
20
-2.6000000000000005
30
0
11
-5.4999999999999991
21
-2.6000000000000005
31
0
0
LINE
5
212
100
AcDbEntity
8
0
100
AcDbLine
10
-6.2999999999999998
20
-2.6000000000000005
30
0
11
-5.4999999999999991
21
-2.2000000000000002
31
0
0
LINE
5
213
100
AcDbEntity
8
0
100
AcDbLine
10
-5.4999999999999991
20
-2.6000000000000005
30
0
11
-6.2999999999999998
21
-2.2000000000000002
31
0
0
LINE
5
214
100
AcDbEntity
8
0
100
AcDbLine
10
-5.4999999999999991
20
-2.6000000000000005
30
0
11
-5.4999999999999991
21
-2.2000000000000002
31
0
0
LINE
5
215
100
AcDbEntity
8
0
100
AcDbLine
10
-5.4999999999999991
20
-2.2000000000000002
30
0
11
-6.2999999999999998
21
-2.2000000000000002
31
0
0
LINE
5
216
100
AcDbEntity
8
0
100
AcDbLine
10
-6.2999999999999998
20
-2.2000000000000002
30
0
11
-6.2999999999999998
21
-2.6000000000000005
31
0
0
LINE
5
217
100
AcDbEntity
8
0
100
AcDbLine
10
6.2999999999999998
20
-1.8000000000000003
30
0
11
5.4999999999999991
21
-1.8000000000000003
31
0
0
LINE
5
218
100
AcDbEntity
8
0
100
AcDbLine
10
6.2999999999999998
20
-1.4000000000000001
30
0
11
6.2999999999999998
21
-1.8000000000000003
31
0
0
LINE
5
219
100
AcDbEntity
8
0
100
AcDbLine
10
6.2999999999999998
20
-1.8000000000000003
30
0
11
5.4999999999999991
21
-1.4000000000000001
31
0
0
LINE
5
220
100
AcDbEntity
8
0
100
AcDbLine
10
5.4999999999999991
20
-1.8000000000000003
30
0
11
6.2999999999999998
21
-1.4000000000000001
31
0
0
LINE
5
221
100
AcDbEntity
8
0
100
AcDbLine
10
5.4999999999999991
20
-1.8000000000000003
30
0
11
5.4999999999999991
21
-1.4000000000000001
31
0
0
LINE
5
222
100
AcDbEntity
8
0
100
AcDbLine
10
5.4999999999999991
20
-1.4000000000000001
30
0
11
6.2999999999999998
21
-1.4000000000000001
31
0
0
LINE
5
223
100
AcDbEntity
8
0
100
AcDbLine
10
-6.2999999999999998
20
-1.8000000000000005
30
0
11
-5.4999999999999991
21
-1.8000000000000005
31
0
0
LINE
5
224
100
AcDbEntity
8
0
100
AcDbLine
10
-6.2999999999999998
20
-1.8000000000000005
30
0
11
-5.4999999999999991
21
-1.4000000000000001
31
0
0
LINE
5
225
100
AcDbEntity
8
0
100
AcDbLine
10
-5.4999999999999991
20
-1.8000000000000005
30
0
11
-6.2999999999999998
21
-1.4000000000000001
31
0
0
LINE
5
226
100
AcDbEntity
8
0
100
AcDbLine
10
-5.4999999999999991
20
-1.8000000000000005
30
0
11
-5.4999999999999991
21
-1.4000000000000001
31
0
0
LINE
5
227
100
AcDbEntity
8
0
100
AcDbLine
10
-5.4999999999999991
20
-1.4000000000000001
30
0
11
-6.2999999999999998
21
-1.4000000000000001
31
0
0
LINE
5
228
100
AcDbEntity
8
0
100
AcDbLine
10
-6.2999999999999998
20
-1.4000000000000001
30
0
11
-6.2999999999999998
21
-1.8000000000000005
31
0
0
LINE
5
229
100
AcDbEntity
8
0
100
AcDbLine
10
6.2999999999999998
20
-1
30
0
11
5.4999999999999991
21
-1
31
0
0
LINE
5
230
100
AcDbEntity
8
0
100
AcDbLine
10
6.2999999999999998
20
-0.59999999999999987
30
0
11
6.2999999999999998
21
-1
31
0
0
LINE
5
231
100
AcDbEntity
8
0
100
AcDbLine
10
6.2999999999999998
20
-1
30
0
11
5.4999999999999991
21
-0.59999999999999987
31
0
0
LINE
5
232
100
AcDbEntity
8
0
100
AcDbLine
10
5.4999999999999991
20
-1
30
0
11
6.2999999999999998
21
-0.59999999999999987
31
0
0
LINE
5
233
100
AcDbEntity
8
0
100
AcDbLine
10
5.4999999999999991
20
-1
30
0
11
5.4999999999999991
21
-0.59999999999999987
31
0
0
LINE
5
234
100
AcDbEntity
8
0
100
AcDbLine
10
5.4999999999999991
20
-0.59999999999999987
30
0
11
6.2999999999999998
21
-0.59999999999999987
31
0
0
LINE
5
235
100
AcDbEntity
8
0
100
AcDbLine
10
-6.2999999999999998
20
-1.0000000000000004
30
0
11
-5.4999999999999991
21
-1.0000000000000004
31
0
0
LINE
5
236
100
AcDbEntity
8
0
100
AcDbLine
10
-6.2999999999999998
20
-1.0000000000000004
30
0
11
-5.4999999999999991
21
-0.59999999999999998
31
0
0
LINE
5
237
100
AcDbEntity
8
0
100
AcDbLine
10
-5.4999999999999991
20
-1.0000000000000004
30
0
11
-6.2999999999999998
21
-0.59999999999999998
31
0
0
LINE
5
238
100
AcDbEntity
8
0
100
AcDbLine
10
-5.4999999999999991
20
-1.0000000000000004
30
0
11
-5.4999999999999991
21
-0.59999999999999998
31
0
0
LINE
5
239
100
AcDbEntity
8
0
100
AcDbLine
10
-5.4999999999999991
20
-0.59999999999999998
30
0
11
-6.2999999999999998
21
-0.59999999999999998
31
0
0
LINE
5
240
100
AcDbEntity
8
0
100
AcDbLine
10
-6.2999999999999998
20
-0.59999999999999998
30
0
11
-6.2999999999999998
21
-1.0000000000000004
31
0
0
LINE
5
241
100
AcDbEntity
8
0
100
AcDbLine
10
6.2999999999999998
20
0.6000000000000002
30
0
11
5.4999999999999991
21
0.6000000000000002
31
0
0
LINE
5
242
100
AcDbEntity
8
0
100
AcDbLine
10
6.2999999999999998
20
1.0000000000000004
30
0
11
6.2999999999999998
21
0.6000000000000002
31
0
0
LINE
5
243
100
AcDbEntity
8
0
100
AcDbLine
10
6.2999999999999998
20
0.6000000000000002
30
0
11
5.4999999999999991
21
1.0000000000000004
31
0
0
LINE
5
244
100
AcDbEntity
8
0
100
AcDbLine
10
5.4999999999999991
20
0.6000000000000002
30
0
11
6.2999999999999998
21
1.0000000000000004
31
0
0
LINE
5
245
100
AcDbEntity
8
0
100
AcDbLine
10
5.4999999999999991
20
0.6000000000000002
30
0
11
5.4999999999999991
21
1.0000000000000004
31
0
0
LINE
5
246
100
AcDbEntity
8
0
100
AcDbLine
10
5.4999999999999991
20
1.0000000000000004
30
0
11
6.2999999999999998
21
1.0000000000000004
31
0
0
LINE
5
247
100
AcDbEntity
8
0
100
AcDbLine
10
-6.2999999999999998
20
0.59999999999999998
30
0
11
-5.4999999999999991
21
0.59999999999999998
31
0
0
LINE
5
248
100
AcDbEntity
8
0
100
AcDbLine
10
-6.2999999999999998
20
0.59999999999999998
30
0
11
-5.4999999999999991
21
1.0000000000000004
31
0
0
LINE
5
249
100
AcDbEntity
8
0
100
AcDbLine
10
-5.4999999999999991
20
0.59999999999999998
30
0
11
-6.2999999999999998
21
1.0000000000000004
31
0
0
LINE
5
250
100
AcDbEntity
8
0
100
AcDbLine
10
-5.4999999999999991
20
0.59999999999999998
30
0
11
-5.4999999999999991
21
1.0000000000000004
31
0
0
LINE
5
251
100
AcDbEntity
8
0
100
AcDbLine
10
-5.4999999999999991
20
1.0000000000000004
30
0
11
-6.2999999999999998
21
1.0000000000000004
31
0
0
LINE
5
252
100
AcDbEntity
8
0
100
AcDbLine
10
-6.2999999999999998
20
1.0000000000000004
30
0
11
-6.2999999999999998
21
0.59999999999999998
31
0
0
LINE
5
253
100
AcDbEntity
8
0
100
AcDbLine
10
6.2999999999999998
20
1.4000000000000004
30
0
11
5.4999999999999991
21
1.4000000000000004
31
0
0
LINE
5
254
100
AcDbEntity
8
0
100
AcDbLine
10
6.2999999999999998
20
1.8000000000000005
30
0
11
6.2999999999999998
21
1.4000000000000004
31
0
0
LINE
5
255
100
AcDbEntity
8
0
100
AcDbLine
10
6.2999999999999998
20
1.4000000000000004
30
0
11
5.4999999999999991
21
1.8000000000000005
31
0
0
LINE
5
256
100
AcDbEntity
8
0
100
AcDbLine
10
5.4999999999999991
20
1.4000000000000004
30
0
11
6.2999999999999998
21
1.8000000000000005
31
0
0
LINE
5
257
100
AcDbEntity
8
0
100
AcDbLine
10
5.4999999999999991
20
1.4000000000000004
30
0
11
5.4999999999999991
21
1.8000000000000005
31
0
0
LINE
5
258
100
AcDbEntity
8
0
100
AcDbLine
10
5.4999999999999991
20
1.8000000000000005
30
0
11
6.2999999999999998
21
1.8000000000000005
31
0
0
LINE
5
259
100
AcDbEntity
8
0
100
AcDbLine
10
-6.2999999999999998
20
1.4000000000000001
30
0
11
-5.4999999999999991
21
1.4000000000000001
31
0
0
LINE
5
260
100
AcDbEntity
8
0
100
AcDbLine
10
-6.2999999999999998
20
1.4000000000000001
30
0
11
-5.4999999999999991
21
1.8000000000000005
31
0
0
LINE
5
261
100
AcDbEntity
8
0
100
AcDbLine
10
-5.4999999999999991
20
1.4000000000000001
30
0
11
-6.2999999999999998
21
1.8000000000000005
31
0
0
LINE
5
262
100
AcDbEntity
8
0
100
AcDbLine
10
-5.4999999999999991
20
1.4000000000000001
30
0
11
-5.4999999999999991
21
1.8000000000000005
31
0
0
LINE
5
263
100
AcDbEntity
8
0
100
AcDbLine
10
-5.4999999999999991
20
1.8000000000000005
30
0
11
-6.2999999999999998
21
1.8000000000000005
31
0
0
LINE
5
264
100
AcDbEntity
8
0
100
AcDbLine
10
-6.2999999999999998
20
1.8000000000000005
30
0
11
-6.2999999999999998
21
1.4000000000000001
31
0
0
LINE
5
265
100
AcDbEntity
8
0
100
AcDbLine
10
6.2999999999999998
20
2.2000000000000006
30
0
11
5.4999999999999991
21
2.2000000000000006
31
0
0
LINE
5
266
100
AcDbEntity
8
0
100
AcDbLine
10
6.2999999999999998
20
2.6000000000000005
30
0
11
6.2999999999999998
21
2.2000000000000006
31
0
0
LINE
5
267
100
AcDbEntity
8
0
100
AcDbLine
10
6.2999999999999998
20
2.2000000000000006
30
0
11
5.4999999999999991
21
2.6000000000000005
31
0
0
LINE
5
268
100
AcDbEntity
8
0
100
AcDbLine
10
5.4999999999999991
20
2.2000000000000006
30
0
11
6.2999999999999998
21
2.6000000000000005
31
0
0
LINE
5
269
100
AcDbEntity
8
0
100
AcDbLine
10
5.4999999999999991
20
2.2000000000000006
30
0
11
5.4999999999999991
21
2.6000000000000005
31
0
0
LINE
5
270
100
AcDbEntity
8
0
100
AcDbLine
10
5.4999999999999991
20
2.6000000000000005
30
0
11
6.2999999999999998
21
2.6000000000000005
31
0
0
LINE
5
271
100
AcDbEntity
8
0
100
AcDbLine
10
-6.2999999999999998
20
2.2000000000000002
30
0
11
-5.4999999999999991
21
2.2000000000000002
31
0
0
LINE
5
272
100
AcDbEntity
8
0
100
AcDbLine
10
-6.2999999999999998
20
2.2000000000000002
30
0
11
-5.4999999999999991
21
2.6000000000000005
31
0
0
LINE
5
273
100
AcDbEntity
8
0
100
AcDbLine
10
-5.4999999999999991
20
2.2000000000000002
30
0
11
-6.2999999999999998
21
2.6000000000000005
31
0
0
LINE
5
274
100
AcDbEntity
8
0
100
AcDbLine
10
-5.4999999999999991
20
2.2000000000000002
30
0
11
-5.4999999999999991
21
2.6000000000000005
31
0
0
LINE
5
275
100
AcDbEntity
8
0
100
AcDbLine
10
-5.4999999999999991
20
2.6000000000000005
30
0
11
-6.2999999999999998
21
2.6000000000000005
31
0
0
LINE
5
276
100
AcDbEntity
8
0
100
AcDbLine
10
-6.2999999999999998
20
2.6000000000000005
30
0
11
-6.2999999999999998
21
2.2000000000000002
31
0
0
LINE
5
277
100
AcDbEntity
8
0
100
AcDbLine
10
6.2999999999999998
20
3.0000000000000004
30
0
11
5.4999999999999991
21
3.0000000000000004
31
0
0
LINE
5
278
100
AcDbEntity
8
0
100
AcDbLine
10
6.2999999999999998
20
3.4000000000000008
30
0
11
6.2999999999999998
21
3.0000000000000004
31
0
0
LINE
5
279
100
AcDbEntity
8
0
100
AcDbLine
10
6.2999999999999998
20
3.0000000000000004
30
0
11
5.4999999999999991
21
3.4000000000000008
31
0
0
LINE
5
280
100
AcDbEntity
8
0
100
AcDbLine
10
5.4999999999999991
20
3.0000000000000004
30
0
11
6.2999999999999998
21
3.4000000000000008
31
0
0
LINE
5
281
100
AcDbEntity
8
0
100
AcDbLine
10
5.4999999999999991
20
3.0000000000000004
30
0
11
5.4999999999999991
21
3.4000000000000008
31
0
0
LINE
5
282
100
AcDbEntity
8
0
100
AcDbLine
10
5.4999999999999991
20
3.4000000000000008
30
0
11
6.2999999999999998
21
3.4000000000000008
31
0
0
LINE
5
283
100
AcDbEntity
8
0
100
AcDbLine
10
-6.2999999999999998
20
3.0000000000000004
30
0
11
-5.4999999999999991
21
3.0000000000000004
31
0
0
LINE
5
284
100
AcDbEntity
8
0
100
AcDbLine
10
-6.2999999999999998
20
3.0000000000000004
30
0
11
-5.4999999999999991
21
3.4000000000000008
31
0
0
LINE
5
285
100
AcDbEntity
8
0
100
AcDbLine
10
-5.4999999999999991
20
3.0000000000000004
30
0
11
-6.2999999999999998
21
3.4000000000000008
31
0
0
LINE
5
286
100
AcDbEntity
8
0
100
AcDbLine
10
-5.4999999999999991
20
3.0000000000000004
30
0
11
-5.4999999999999991
21
3.4000000000000008
31
0
0
LINE
5
287
100
AcDbEntity
8
0
100
AcDbLine
10
-5.4999999999999991
20
3.4000000000000008
30
0
11
-6.2999999999999998
21
3.4000000000000008
31
0
0
LINE
5
288
100
AcDbEntity
8
0
100
AcDbLine
10
-6.2999999999999998
20
3.4000000000000008
30
0
11
-6.2999999999999998
21
3.0000000000000004
31
0
0
LINE
5
289
100
AcDbEntity
8
0
100
AcDbLine
10
6.2999999999999998
20
3.8000000000000007
30
0
11
5.4999999999999991
21
3.8000000000000007
31
0
0
LINE
5
290
100
AcDbEntity
8
0
100
AcDbLine
10
6.2999999999999998
20
4.2000000000000011
30
0
11
6.2999999999999998
21
3.8000000000000007
31
0
0
LINE
5
291
100
AcDbEntity
8
0
100
AcDbLine
10
6.2999999999999998
20
3.8000000000000007
30
0
11
5.4999999999999991
21
4.2000000000000011
31
0
0
LINE
5
292
100
AcDbEntity
8
0
100
AcDbLine
10
5.4999999999999991
20
3.8000000000000007
30
0
11
6.2999999999999998
21
4.2000000000000011
31
0
0
LINE
5
293
100
AcDbEntity
8
0
100
AcDbLine
10
5.4999999999999991
20
3.8000000000000007
30
0
11
5.4999999999999991
21
4.2000000000000011
31
0
0
LINE
5
294
100
AcDbEntity
8
0
100
AcDbLine
10
5.4999999999999991
20
4.2000000000000011
30
0
11
6.2999999999999998
21
4.2000000000000011
31
0
0
LINE
5
295
100
AcDbEntity
8
0
100
AcDbLine
10
-6.2999999999999998
20
3.8000000000000007
30
0
11
-5.4999999999999991
21
3.8000000000000007
31
0
0
LINE
5
296
100
AcDbEntity
8
0
100
AcDbLine
10
-6.2999999999999998
20
3.8000000000000007
30
0
11
-5.4999999999999991
21
4.2000000000000011
31
0
0
LINE
5
297
100
AcDbEntity
8
0
100
AcDbLine
10
-5.4999999999999991
20
3.8000000000000007
30
0
11
-6.2999999999999998
21
4.2000000000000011
31
0
0
LINE
5
298
100
AcDbEntity
8
0
100
AcDbLine
10
-5.4999999999999991
20
3.8000000000000007
30
0
11
-5.4999999999999991
21
4.2000000000000011
31
0
0
LINE
5
299
100
AcDbEntity
8
0
100
AcDbLine
10
-5.4999999999999991
20
4.2000000000000011
30
0
11
-6.2999999999999998
21
4.2000000000000011
31
0
0
LINE
5
300
100
AcDbEntity
8
0
100
AcDbLine
10
-6.2999999999999998
20
4.2000000000000011
30
0
11
-6.2999999999999998
21
3.8000000000000007
31
0
0
LWPOLYLINE
5
301
100
AcDbEntity
8
0
100
AcDbPolyline
90
6
70
1
43
0.0
10
-5.0000000000000009
20
5.3000000000000016
10
-4.6000000000000005
20
4.5000000000000009
10
-5.0000000000000009
20
4.5000000000000009
10
-4.6000000000000005
20
5.3000000000000016
10
-5.0000000000000009
20
5.3000000000000016
10
-5.0000000000000009
20
4.5000000000000009
0
LINE
5
302
100
AcDbEntity
8
0
100
AcDbLine
10
-4.6000000000000005
20
-4.5000000000000009
30
0
11
-5.0000000000000009
21
-4.5000000000000009
31
0
0
LINE
5
303
100
AcDbEntity
8
0
100
AcDbLine
10
-5.0000000000000009
20
-4.5000000000000009
30
0
11
-5.0000000000000009
21
-5.3000000000000016
31
0
0
LINE
5
304
100
AcDbEntity
8
0
100
AcDbLine
10
-5.0000000000000009
20
-5.3000000000000016
30
0
11
-4.6000000000000005
21
-5.3000000000000016
31
0
0
LINE
5
305
100
AcDbEntity
8
0
100
AcDbLine
10
-4.6000000000000005
20
-5.3000000000000016
30
0
11
-4.6000000000000005
21
-4.5000000000000009
31
0
0
LINE
5
306
100
AcDbEntity
8
0
100
AcDbLine
10
-5.0000000000000009
20
-4.5000000000000009
30
0
11
-4.6000000000000005
21
-5.3000000000000016
31
0
0
LINE
5
307
100
AcDbEntity
8
0
100
AcDbLine
10
-4.6000000000000005
20
-4.5000000000000009
30
0
11
-5.0000000000000009
21
-5.3000000000000016
31
0
0
LWPOLYLINE
5
308
100
AcDbEntity
8
0
100
AcDbPolyline
90
6
70
1
43
0.0
10
-4.2000000000000011
20
5.3000000000000016
10
-3.8000000000000007
20
4.5000000000000009
10
-4.2000000000000011
20
4.5000000000000009
10
-3.8000000000000007
20
5.3000000000000016
10
-4.2000000000000011
20
5.3000000000000016
10
-4.2000000000000011
20
4.5000000000000009
0
LINE
5
309
100
AcDbEntity
8
0
100
AcDbLine
10
-3.8000000000000007
20
-4.5000000000000009
30
0
11
-4.2000000000000011
21
-4.5000000000000009
31
0
0
LINE
5
310
100
AcDbEntity
8
0
100
AcDbLine
10
-4.2000000000000011
20
-4.5000000000000009
30
0
11
-4.2000000000000011
21
-5.3000000000000016
31
0
0
LINE
5
311
100
AcDbEntity
8
0
100
AcDbLine
10
-4.2000000000000011
20
-5.3000000000000016
30
0
11
-3.8000000000000007
21
-5.3000000000000016
31
0
0
LINE
5
312
100
AcDbEntity
8
0
100
AcDbLine
10
-3.8000000000000007
20
-5.3000000000000016
30
0
11
-3.8000000000000007
21
-4.5000000000000009
31
0
0
LINE
5
313
100
AcDbEntity
8
0
100
AcDbLine
10
-4.2000000000000011
20
-4.5000000000000009
30
0
11
-3.8000000000000007
21
-5.3000000000000016
31
0
0
LINE
5
314
100
AcDbEntity
8
0
100
AcDbLine
10
-3.8000000000000007
20
-4.5000000000000009
30
0
11
-4.2000000000000011
21
-5.3000000000000016
31
0
0
LWPOLYLINE
5
315
100
AcDbEntity
8
0
100
AcDbPolyline
90
6
70
1
43
0.0
10
-3.4000000000000012
20
5.3000000000000016
10
-3.0000000000000004
20
4.5000000000000009
10
-3.4000000000000008
20
4.5000000000000009
10
-3.0000000000000004
20
5.3000000000000016
10
-3.4000000000000012
20
5.3000000000000016
10
-3.4000000000000008
20
4.5000000000000009
0
LINE
5
316
100
AcDbEntity
8
0
100
AcDbLine
10
-3.0000000000000004
20
-4.5000000000000009
30
0
11
-3.4000000000000008
21
-4.5000000000000009
31
0
0
LINE
5
317
100
AcDbEntity
8
0
100
AcDbLine
10
-3.4000000000000008
20
-4.5000000000000009
30
0
11
-3.4000000000000008
21
-5.3000000000000016
31
0
0
LINE
5
318
100
AcDbEntity
8
0
100
AcDbLine
10
-3.4000000000000008
20
-5.3000000000000016
30
0
11
-3.0000000000000004
21
-5.3000000000000016
31
0
0
LINE
5
319
100
AcDbEntity
8
0
100
AcDbLine
10
-3.0000000000000004
20
-5.3000000000000016
30
0
11
-3.0000000000000004
21
-4.5000000000000009
31
0
0
LINE
5
320
100
AcDbEntity
8
0
100
AcDbLine
10
-3.4000000000000008
20
-4.5000000000000009
30
0
11
-3.0000000000000004
21
-5.3000000000000016
31
0
0
LINE
5
321
100
AcDbEntity
8
0
100
AcDbLine
10
-3.0000000000000004
20
-4.5000000000000009
30
0
11
-3.4000000000000008
21
-5.3000000000000016
31
0
0
LWPOLYLINE
5
322
100
AcDbEntity
8
0
100
AcDbPolyline
90
6
70
1
43
0.0
10
-2.6000000000000014
20
5.3000000000000016
10
-2.2000000000000006
20
4.5000000000000009
10
-2.6000000000000005
20
4.5000000000000009
10
-2.2000000000000006
20
5.3000000000000016
10
-2.6000000000000014
20
5.3000000000000016
10
-2.6000000000000005
20
4.5000000000000009
0
LINE
5
323
100
AcDbEntity
8
0
100
AcDbLine
10
-2.2000000000000002
20
-4.5000000000000009
30
0
11
-2.6000000000000005
21
-4.5000000000000009
31
0
0
LINE
5
324
100
AcDbEntity
8
0
100
AcDbLine
10
-2.6000000000000005
20
-4.5000000000000009
30
0
11
-2.6000000000000005
21
-5.3000000000000016
31
0
0
LINE
5
325
100
AcDbEntity
8
0
100
AcDbLine
10
-2.6000000000000005
20
-5.3000000000000016
30
0
11
-2.2000000000000002
21
-5.3000000000000016
31
0
0
LINE
5
326
100
AcDbEntity
8
0
100
AcDbLine
10
-2.2000000000000002
20
-5.3000000000000016
30
0
11
-2.2000000000000002
21
-4.5000000000000009
31
0
0
LINE
5
327
100
AcDbEntity
8
0
100
AcDbLine
10
-2.6000000000000005
20
-4.5000000000000009
30
0
11
-2.2000000000000002
21
-5.3000000000000016
31
0
0
LINE
5
328
100
AcDbEntity
8
0
100
AcDbLine
10
-2.2000000000000002
20
-4.5000000000000009
30
0
11
-2.6000000000000005
21
-5.3000000000000016
31
0
0
LWPOLYLINE
5
329
100
AcDbEntity
8
0
100
AcDbPolyline
90
6
70
1
43
0.0
10
-1.8000000000000007
20
5.3000000000000016
10
-1.4000000000000004
20
4.5000000000000009
10
-1.8000000000000007
20
4.5000000000000009
10
-1.4000000000000004
20
5.3000000000000016
10
-1.8000000000000007
20
5.3000000000000016
10
-1.8000000000000007
20
4.5000000000000009
0
LINE
5
330
100
AcDbEntity
8
0
100
AcDbLine
10
-1.4000000000000001
20
-4.5000000000000009
30
0
11
-1.8000000000000005
21
-4.5000000000000009
31
0
0
LINE
5
331
100
AcDbEntity
8
0
100
AcDbLine
10
-1.8000000000000005
20
-4.5000000000000009
30
0
11
-1.8000000000000005
21
-5.3000000000000016
31
0
0
LINE
5
332
100
AcDbEntity
8
0
100
AcDbLine
10
-1.8000000000000005
20
-5.3000000000000016
30
0
11
-1.4000000000000001
21
-5.3000000000000016
31
0
0
LINE
5
333
100
AcDbEntity
8
0
100
AcDbLine
10
-1.4000000000000001
20
-5.3000000000000016
30
0
11
-1.4000000000000001
21
-4.5000000000000009
31
0
0
LINE
5
334
100
AcDbEntity
8
0
100
AcDbLine
10
-1.8000000000000005
20
-4.5000000000000009
30
0
11
-1.4000000000000001
21
-5.3000000000000016
31
0
0
LINE
5
335
100
AcDbEntity
8
0
100
AcDbLine
10
-1.4000000000000001
20
-4.5000000000000009
30
0
11
-1.8000000000000005
21
-5.3000000000000016
31
0
0
LWPOLYLINE
5
336
100
AcDbEntity
8
0
100
AcDbPolyline
90
6
70
1
43
0.0
10
-1.0000000000000007
20
5.3000000000000016
10
-0.6000000000000002
20
4.5000000000000009
10
-1.0000000000000007
20
4.5000000000000009
10
-0.6000000000000002
20
5.3000000000000016
10
-1.0000000000000007
20
5.3000000000000016
10
-1.0000000000000007
20
4.5000000000000009
0
LINE
5
337
100
AcDbEntity
8
0
100
AcDbLine
10
-0.59999999999999998
20
-4.5000000000000009
30
0
11
-1.0000000000000004
21
-4.5000000000000009
31
0
0
LINE
5
338
100
AcDbEntity
8
0
100
AcDbLine
10
-1.0000000000000004
20
-4.5000000000000009
30
0
11
-1.0000000000000004
21
-5.3000000000000016
31
0
0
LINE
5
339
100
AcDbEntity
8
0
100
AcDbLine
10
-1.0000000000000004
20
-5.3000000000000016
30
0
11
-0.59999999999999998
21
-5.3000000000000016
31
0
0
LINE
5
340
100
AcDbEntity
8
0
100
AcDbLine
10
-0.59999999999999998
20
-5.3000000000000016
30
0
11
-0.59999999999999998
21
-4.5000000000000009
31
0
0
LINE
5
341
100
AcDbEntity
8
0
100
AcDbLine
10
-1.0000000000000004
20
-4.5000000000000009
30
0
11
-0.59999999999999998
21
-5.3000000000000016
31
0
0
LINE
5
342
100
AcDbEntity
8
0
100
AcDbLine
10
-0.59999999999999998
20
-4.5000000000000009
30
0
11
-1.0000000000000004
21
-5.3000000000000016
31
0
0
LWPOLYLINE
5
343
100
AcDbEntity
8
0
100
AcDbPolyline
90
6
70
1
43
0.0
10
0.59999999999999964
20
5.3000000000000016
10
1
20
4.5000000000000009
10
0.59999999999999976
20
4.5000000000000009
10
1
20
5.3000000000000016
10
0.59999999999999964
20
5.3000000000000016
10
0.59999999999999976
20
4.5000000000000009
0
LINE
5
344
100
AcDbEntity
8
0
100
AcDbLine
10
1.0000000000000004
20
-4.5000000000000009
30
0
11
0.59999999999999998
21
-4.5000000000000009
31
0
0
LINE
5
345
100
AcDbEntity
8
0
100
AcDbLine
10
0.59999999999999998
20
-4.5000000000000009
30
0
11
0.59999999999999998
21
-5.3000000000000016
31
0
0
LINE
5
346
100
AcDbEntity
8
0
100
AcDbLine
10
0.59999999999999998
20
-5.3000000000000016
30
0
11
1.0000000000000004
21
-5.3000000000000016
31
0
0
LINE
5
347
100
AcDbEntity
8
0
100
AcDbLine
10
1.0000000000000004
20
-5.3000000000000016
30
0
11
1.0000000000000004
21
-4.5000000000000009
31
0
0
LINE
5
348
100
AcDbEntity
8
0
100
AcDbLine
10
0.59999999999999998
20
-4.5000000000000009
30
0
11
1.0000000000000004
21
-5.3000000000000016
31
0
0
LINE
5
349
100
AcDbEntity
8
0
100
AcDbLine
10
1.0000000000000004
20
-4.5000000000000009
30
0
11
0.59999999999999998
21
-5.3000000000000016
31
0
0
LWPOLYLINE
5
350
100
AcDbEntity
8
0
100
AcDbPolyline
90
6
70
1
43
0.0
10
1.3999999999999999
20
5.3000000000000016
10
1.8000000000000003
20
4.5000000000000009
10
1.3999999999999999
20
4.5000000000000009
10
1.8000000000000003
20
5.3000000000000016
10
1.3999999999999999
20
5.3000000000000016
10
1.3999999999999999
20
4.5000000000000009
0
LINE
5
351
100
AcDbEntity
8
0
100
AcDbLine
10
1.8000000000000005
20
-4.5000000000000009
30
0
11
1.4000000000000001
21
-4.5000000000000009
31
0
0
LINE
5
352
100
AcDbEntity
8
0
100
AcDbLine
10
1.4000000000000001
20
-4.5000000000000009
30
0
11
1.4000000000000001
21
-5.3000000000000016
31
0
0
LINE
5
353
100
AcDbEntity
8
0
100
AcDbLine
10
1.4000000000000001
20
-5.3000000000000016
30
0
11
1.8000000000000005
21
-5.3000000000000016
31
0
0
LINE
5
354
100
AcDbEntity
8
0
100
AcDbLine
10
1.8000000000000005
20
-5.3000000000000016
30
0
11
1.8000000000000005
21
-4.5000000000000009
31
0
0
LINE
5
355
100
AcDbEntity
8
0
100
AcDbLine
10
1.4000000000000001
20
-4.5000000000000009
30
0
11
1.8000000000000005
21
-5.3000000000000016
31
0
0
LINE
5
356
100
AcDbEntity
8
0
100
AcDbLine
10
1.8000000000000005
20
-4.5000000000000009
30
0
11
1.4000000000000001
21
-5.3000000000000016
31
0
0
LWPOLYLINE
5
357
100
AcDbEntity
8
0
100
AcDbPolyline
90
6
70
1
43
0.0
10
2.2000000000000002
20
5.3000000000000016
10
2.6000000000000005
20
4.5000000000000009
10
2.2000000000000002
20
4.5000000000000009
10
2.6000000000000005
20
5.3000000000000016
10
2.2000000000000002
20
5.3000000000000016
10
2.2000000000000002
20
4.5000000000000009
0
LINE
5
358
100
AcDbEntity
8
0
100
AcDbLine
10
2.6000000000000005
20
-4.5000000000000009
30
0
11
2.2000000000000002
21
-4.5000000000000009
31
0
0
LINE
5
359
100
AcDbEntity
8
0
100
AcDbLine
10
2.2000000000000002
20
-4.5000000000000009
30
0
11
2.2000000000000002
21
-5.3000000000000016
31
0
0
LINE
5
360
100
AcDbEntity
8
0
100
AcDbLine
10
2.2000000000000002
20
-5.3000000000000016
30
0
11
2.6000000000000005
21
-5.3000000000000016
31
0
0
LINE
5
361
100
AcDbEntity
8
0
100
AcDbLine
10
2.6000000000000005
20
-5.3000000000000016
30
0
11
2.6000000000000005
21
-4.5000000000000009
31
0
0
LINE
5
362
100
AcDbEntity
8
0
100
AcDbLine
10
2.2000000000000002
20
-4.5000000000000009
30
0
11
2.6000000000000005
21
-5.3000000000000016
31
0
0
LINE
5
363
100
AcDbEntity
8
0
100
AcDbLine
10
2.6000000000000005
20
-4.5000000000000009
30
0
11
2.2000000000000002
21
-5.3000000000000016
31
0
0
LWPOLYLINE
5
364
100
AcDbEntity
8
0
100
AcDbPolyline
90
6
70
1
43
0.0
10
3
20
5.3000000000000016
10
3.4000000000000008
20
4.5000000000000009
10
3.0000000000000004
20
4.5000000000000009
10
3.4000000000000008
20
5.3000000000000016
10
3
20
5.3000000000000016
10
3.0000000000000004
20
4.5000000000000009
0
LINE
5
365
100
AcDbEntity
8
0
100
AcDbLine
10
3.4000000000000008
20
-4.5000000000000009
30
0
11
3.0000000000000004
21
-4.5000000000000009
31
0
0
LINE
5
366
100
AcDbEntity
8
0
100
AcDbLine
10
3.0000000000000004
20
-4.5000000000000009
30
0
11
3.0000000000000004
21
-5.3000000000000016
31
0
0
LINE
5
367
100
AcDbEntity
8
0
100
AcDbLine
10
3.0000000000000004
20
-5.3000000000000016
30
0
11
3.4000000000000008
21
-5.3000000000000016
31
0
0
LINE
5
368
100
AcDbEntity
8
0
100
AcDbLine
10
3.4000000000000008
20
-5.3000000000000016
30
0
11
3.4000000000000008
21
-4.5000000000000009
31
0
0
LINE
5
369
100
AcDbEntity
8
0
100
AcDbLine
10
3.0000000000000004
20
-4.5000000000000009
30
0
11
3.4000000000000008
21
-5.3000000000000016
31
0
0
LINE
5
370
100
AcDbEntity
8
0
100
AcDbLine
10
3.4000000000000008
20
-4.5000000000000009
30
0
11
3.0000000000000004
21
-5.3000000000000016
31
0
0
LWPOLYLINE
5
371
100
AcDbEntity
8
0
100
AcDbPolyline
90
6
70
1
43
0.0
10
3.7999999999999998
20
5.3000000000000016
10
4.2000000000000011
20
4.5000000000000009
10
3.8000000000000007
20
4.5000000000000009
10
4.2000000000000011
20
5.3000000000000016
10
3.7999999999999998
20
5.3000000000000016
10
3.8000000000000007
20
4.5000000000000009
0
LINE
5
372
100
AcDbEntity
8
0
100
AcDbLine
10
4.2000000000000011
20
-4.5000000000000009
30
0
11
3.8000000000000007
21
-4.5000000000000009
31
0
0
LINE
5
373
100
AcDbEntity
8
0
100
AcDbLine
10
3.8000000000000007
20
-4.5000000000000009
30
0
11
3.8000000000000007
21
-5.3000000000000016
31
0
0
LINE
5
374
100
AcDbEntity
8
0
100
AcDbLine
10
3.8000000000000007
20
-5.3000000000000016
30
0
11
4.2000000000000011
21
-5.3000000000000016
31
0
0
LINE
5
375
100
AcDbEntity
8
0
100
AcDbLine
10
4.2000000000000011
20
-5.3000000000000016
30
0
11
4.2000000000000011
21
-4.5000000000000009
31
0
0
LINE
5
376
100
AcDbEntity
8
0
100
AcDbLine
10
3.8000000000000007
20
-4.5000000000000009
30
0
11
4.2000000000000011
21
-5.3000000000000016
31
0
0
LINE
5
377
100
AcDbEntity
8
0
100
AcDbLine
10
4.2000000000000011
20
-4.5000000000000009
30
0
11
3.8000000000000007
21
-5.3000000000000016
31
0
0
LWPOLYLINE
5
378
100
AcDbEntity
8
0
100
AcDbPolyline
90
6
70
1
43
0.0
10
4.6000000000000005
20
5.3000000000000016
10
5.0000000000000009
20
4.5000000000000009
10
4.6000000000000005
20
4.5000000000000009
10
5.0000000000000009
20
5.3000000000000016
10
4.6000000000000005
20
5.3000000000000016
10
4.6000000000000005
20
4.5000000000000009
0
LINE
5
379
100
AcDbEntity
8
0
100
AcDbLine
10
5.0000000000000009
20
-4.5000000000000009
30
0
11
4.6000000000000005
21
-4.5000000000000009
31
0
0
LINE
5
380
100
AcDbEntity
8
0
100
AcDbLine
10
4.6000000000000005
20
-4.5000000000000009
30
0
11
4.6000000000000005
21
-5.3000000000000016
31
0
0
LINE
5
381
100
AcDbEntity
8
0
100
AcDbLine
10
4.6000000000000005
20
-5.3000000000000016
30
0
11
5.0000000000000009
21
-5.3000000000000016
31
0
0
LINE
5
382
100
AcDbEntity
8
0
100
AcDbLine
10
5.0000000000000009
20
-5.3000000000000016
30
0
11
5.0000000000000009
21
-4.5000000000000009
31
0
0
LINE
5
383
100
AcDbEntity
8
0
100
AcDbLine
10
4.6000000000000005
20
-4.5000000000000009
30
0
11
5.0000000000000009
21
-5.3000000000000016
31
0
0
LINE
5
384
100
AcDbEntity
8
0
100
AcDbLine
10
5.0000000000000009
20
-4.5000000000000009
30
0
11
4.6000000000000005
21
-5.3000000000000016
31
0
0
LINE
5
385
100
AcDbEntity
8
0
100
AcDbLine
10
6.3000000000000007
20
4.6000000000000005
30
0
11
5.6000000000000014
21
4.6000000000000005
31
0
0
LINE
5
386
100
AcDbEntity
8
0
100
AcDbLine
10
5.6000000000000014
20
4.6000000000000005
30
0
11
5.6000000000000014
21
5.3000000000000007
31
0
0
LINE
5
387
100
AcDbEntity
8
0
100
AcDbLine
10
5.6000000000000014
20
5.3000000000000007
30
0
11
6.3000000000000007
21
5.3000000000000007
31
0
0
LINE
5
388
100
AcDbEntity
8
0
100
AcDbLine
10
6.3000000000000007
20
5.3000000000000007
30
0
11
6.3000000000000007
21
4.6000000000000005
31
0
0
LINE
5
389
100
AcDbEntity
8
0
100
AcDbLine
10
6.3000000000000007
20
4.6000000000000005
30
0
11
5.6000000000000014
21
5.3000000000000007
31
0
0
LINE
5
390
100
AcDbEntity
8
0
100
AcDbLine
10
5.6000000000000014
20
4.6000000000000005
30
0
11
6.3000000000000007
21
5.3000000000000007
31
0
0
LINE
5
391
100
AcDbEntity
8
0
100
AcDbLine
10
-5.6000000000000005
20
5.3000000000000007
30
0
11
-5.6000000000000005
21
4.6000000000000005
31
0
0
LINE
5
392
100
AcDbEntity
8
0
100
AcDbLine
10
-6.2999999999999998
20
5.3000000000000007
30
0
11
-5.6000000000000005
21
5.3000000000000007
31
0
0
LINE
5
393
100
AcDbEntity
8
0
100
AcDbLine
10
-5.6000000000000005
20
4.6000000000000005
30
0
11
-6.2999999999999998
21
4.6000000000000005
31
0
0
LINE
5
394
100
AcDbEntity
8
0
100
AcDbLine
10
-6.2999999999999998
20
4.6000000000000005
30
0
11
-6.2999999999999998
21
5.3000000000000007
31
0
0
LINE
5
395
100
AcDbEntity
8
0
100
AcDbLine
10
-6.2999999999999998
20
4.6000000000000005
30
0
11
-5.6000000000000005
21
5.3000000000000007
31
0
0
LINE
5
396
100
AcDbEntity
8
0
100
AcDbLine
10
-5.6000000000000005
20
4.6000000000000005
30
0
11
-6.2999999999999998
21
5.3000000000000007
31
0
0
LINE
5
397
100
AcDbEntity
8
0
100
AcDbLine
10
6.3000000000000007
20
-4.6000000000000014
30
0
11
6.3000000000000007
21
-5.3000000000000016
31
0
0
LINE
5
398
100
AcDbEntity
8
0
100
AcDbLine
10
5.6000000000000014
20
-4.6000000000000014
30
0
11
6.3000000000000007
21
-4.6000000000000014
31
0
0
LINE
5
399
100
AcDbEntity
8
0
100
AcDbLine
10
6.3000000000000007
20
-5.3000000000000016
30
0
11
5.6000000000000014
21
-5.3000000000000016
31
0
0
LINE
5
400
100
AcDbEntity
8
0
100
AcDbLine
10
5.6000000000000014
20
-5.3000000000000016
30
0
11
5.6000000000000014
21
-4.6000000000000014
31
0
0
LINE
5
401
100
AcDbEntity
8
0
100
AcDbLine
10
5.6000000000000014
20
-5.3000000000000016
30
0
11
6.3000000000000007
21
-4.6000000000000014
31
0
0
LINE
5
402
100
AcDbEntity
8
0
100
AcDbLine
10
6.3000000000000007
20
-5.3000000000000016
30
0
11
5.6000000000000014
21
-4.6000000000000014
31
0
0
LINE
5
403
100
AcDbEntity
8
0
100
AcDbLine
10
-5.6000000000000005
20
-4.6000000000000014
30
0
11
-5.6000000000000005
21
-5.3000000000000016
31
0
0
LINE
5
404
100
AcDbEntity
8
0
100
AcDbLine
10
-6.2999999999999998
20
-4.6000000000000014
30
0
11
-5.6000000000000005
21
-4.6000000000000014
31
0
0
LINE
5
405
100
AcDbEntity
8
0
100
AcDbLine
10
-5.6000000000000005
20
-5.3000000000000016
30
0
11
-6.2999999999999998
21
-5.3000000000000016
31
0
0
LINE
5
406
100
AcDbEntity
8
0
100
AcDbLine
10
-6.2999999999999998
20
-5.3000000000000016
30
0
11
-6.2999999999999998
21
-4.6000000000000014
31
0
0
LINE
5
407
100
AcDbEntity
8
0
100
AcDbLine
10
-6.2999999999999998
20
-5.3000000000000016
30
0
11
-5.6000000000000005
21
-4.6000000000000014
31
0
0
LINE
5
408
100
AcDbEntity
8
0
100
AcDbLine
10
-5.6000000000000005
20
-5.3000000000000016
30
0
11
-6.2999999999999998
21
-4.6000000000000014
31
0
0
ENDSEC
0
SECTION
2
OBJECTS
0
DICTIONARY
5
C
100
AcDbDictionary
3
ACAD_GROUP
350
D
3
ACAD_MLINESTYLE
350
17
0
DICTIONARY
5
D
100
AcDbDictionary
0
DICTIONARY
5
1A
330
C
100
AcDbDictionary
0
DICTIONARY
5
17
100
AcDbDictionary
0
ENDSEC
0
EOF
