0
SECTION
2
HEADER
9
$INSUNITS
70
4
9
$ACADVER
1
AC1014
9
$HANDSEED
5
FFFF
0
ENDSEC
0
SECTION
2
TABLES
0
TABLE
2
VPORT
5
8
100
AcDbSymbolTable
0
ENDTAB
0
TABLE
2
LTYPE
5
5
100
AcDbSymbolTable
0
LTYPE
5
14
100
AcDbSymbolTableRecord
100
AcDbLinetypeTableRecord
2
BYBLOCK
70
0
0
LTYPE
5
15
100
AcDbSymbolTableRecord
100
AcDbLinetypeTableRecord
2
BYLAYER
70
0
0
ENDTAB
0
TABLE
2
LAYER
5
2
100
AcDbSymbolTable
70
2
0
LAYER
5
50
100
AcDbSymbolTableRecord
100
AcDbLayerTableRecord
2
0
70
0
6
CONTINUOUS
0
ENDTAB
0
TABLE
2
STYLE
5
3
100
AcDbSymbolTable
70
1
0
STYLE
5
11
100
AcDbSymbolTableRecord
100
AcDbTextStyleTableRecord
2
STANDARD
70
0
0
ENDTAB
0
TABLE
2
VIEW
5
6
100
AcDbSymbolTable
70
0
0
ENDTAB
0
TABLE
2
UCS
5
7
100
AcDbSymbolTable
70
0
0
ENDTAB
0
TABLE
2
APPID
5
9
100
AcDbSymbolTable
70
2
0
APPID
5
12
100
AcDbSymbolTableRecord
100
AcDbRegAppTableRecord
2
ACAD
70
0
0
ENDTAB
0
TABLE
2
DIMSTYLE
5
A
100
AcDbSymbolTable
70
1
0
ENDTAB
0
TABLE
2
BLOCK_RECORD
5
1
100
AcDbSymbolTable
70
1
0
BLOCK_RECORD
5
1F
100
AcDbSymbolTableRecord
100
AcDbBlockTableRecord
2
*MODEL_SPACE
0
BLOCK_RECORD
5
1B
100
AcDbSymbolTableRecord
100
AcDbBlockTableRecord
2
*PAPER_SPACE
0
ENDTAB
0
ENDSEC
0
SECTION
2
BLOCKS
0
BLOCK
5
20
100
AcDbEntity
100
AcDbBlockBegin
2
*MODEL_SPACE
0
ENDBLK
5
21
100
AcDbEntity
100
AcDbBlockEnd
0
BLOCK
5
1C
100
AcDbEntity
100
AcDbBlockBegin
2
*PAPER_SPACE
0
ENDBLK
5
1D
100
AcDbEntity
100
AcDbBlockEnd
0
ENDSEC
0
SECTION
2
ENTITIES
0
LINE
5
100
100
AcDbEntity
8
0
100
AcDbLine
10
-0.77500000000000058
20
-1.9500000000000002
30
0
11
-1.1750000000000007
21
-1.9499999999999995
31
0
0
LINE
5
101
100
AcDbEntity
8
0
100
AcDbLine
10
-1.1750000000000007
20
-1.9499999999999995
30
0
11
-1.1749999999999978
21
-0.94999999999999996
31
0
0
LINE
5
102
100
AcDbEntity
8
0
100
AcDbLine
10
-1.1749999999999978
20
-0.94999999999999996
30
0
11
-0.77500000000000069
21
-0.94999999999999996
31
0
0
LINE
5
103
100
AcDbEntity
8
0
100
AcDbLine
10
-0.77500000000000069
20
-0.94999999999999996
30
0
11
-0.77500000000000058
21
-1.9500000000000002
31
0
0
LINE
5
104
100
AcDbEntity
8
0
100
AcDbLine
10
-0.77500000000000058
20
-1.9500000000000002
30
0
11
-1.1749999999999978
21
-0.94999999999999996
31
0
0
LINE
5
105
100
AcDbEntity
8
0
100
AcDbLine
10
-1.1750000000000007
20
-1.9499999999999995
30
0
11
-0.77500000000000069
21
-0.94999999999999996
31
0
0
LINE
5
106
100
AcDbEntity
8
0
100
AcDbLine
10
-0.77500000000011515
20
1.1899999999999997
30
0
11
-1.1750000000001124
21
1.1899999999999997
31
0
0
LINE
5
107
100
AcDbEntity
8
0
100
AcDbLine
10
-1.1750000000001124
20
1.1899999999999997
30
0
11
-1.1749999999998848
21
1.9500000000000002
31
0
0
LINE
5
108
100
AcDbEntity
8
0
100
AcDbLine
10
-1.1749999999998848
20
1.9500000000000002
30
0
11
-0.77499999999988756
21
1.9500000000000002
31
0
0
LINE
5
109
100
AcDbEntity
8
0
100
AcDbLine
10
-0.77499999999988756
20
1.9500000000000002
30
0
11
-0.77500000000011515
21
1.1899999999999997
31
0
0
LINE
5
110
100
AcDbEntity
8
0
100
AcDbLine
10
-0.77500000000011515
20
1.1899999999999997
30
0
11
-1.1749999999998848
21
1.9500000000000002
31
0
0
LINE
5
111
100
AcDbEntity
8
0
100
AcDbLine
10
-1.1750000000001124
20
1.1899999999999997
30
0
11
-0.77499999999988756
21
1.9500000000000002
31
0
0
LINE
5
112
100
AcDbEntity
8
0
100
AcDbLine
10
1.1749999999999998
20
-0.30249999999999988
30
0
11
-1.175
21
-0.30249999999999977
31
0
0
LINE
5
113
100
AcDbEntity
8
0
100
AcDbLine
10
-1.175
20
-0.30249999999999977
30
0
11
-1.175
21
1.4225000000000001
31
0
0
LINE
5
114
100
AcDbEntity
8
0
100
AcDbLine
10
-1.175
20
1.4225000000000001
30
0
11
1.175
21
1.4225000000000001
31
0
0
LINE
5
115
100
AcDbEntity
8
0
100
AcDbLine
10
1.175
20
1.4225000000000001
30
0
11
1.1749999999999998
21
-0.30249999999999988
31
0
0
LINE
5
116
100
AcDbEntity
8
0
100
AcDbLine
10
1.1749999999999998
20
-0.30249999999999988
30
0
11
-1.175
21
1.4225000000000001
31
0
0
LINE
5
117
100
AcDbEntity
8
0
100
AcDbLine
10
-1.175
20
-0.30249999999999977
30
0
11
1.175
21
1.4225000000000001
31
0
0
LINE
5
118
100
AcDbEntity
8
0
100
AcDbLine
10
-1.6500000000000004
20
-1.6500000000000001
30
0
11
1.6499999999999999
21
-1.6500000000000001
31
0
0
LINE
5
119
100
AcDbEntity
8
0
100
AcDbLine
10
0
20
0.56000000000000005
30
0
11
-2.7755575615628914e-16
21
-1.6500000000000001
31
0
0
LINE
5
120
100
AcDbEntity
8
0
100
AcDbLine
10
-0.52500000000000058
20
-1.9499999999999995
30
0
11
-0.12500000000000067
21
-0.94999999999999996
31
0
0
LINE
5
121
100
AcDbEntity
8
0
100
AcDbLine
10
-0.12500000000000053
20
-1.9500000000000002
30
0
11
-0.5249999999999978
21
-0.94999999999999996
31
0
0
LINE
5
122
100
AcDbEntity
8
0
100
AcDbLine
10
-0.12500000000000067
20
-0.94999999999999996
30
0
11
-0.12500000000000053
21
-1.9500000000000002
31
0
0
LINE
5
123
100
AcDbEntity
8
0
100
AcDbLine
10
-0.5249999999999978
20
-0.94999999999999996
30
0
11
-0.12500000000000067
21
-0.94999999999999996
31
0
0
LINE
5
124
100
AcDbEntity
8
0
100
AcDbLine
10
-0.52500000000000058
20
-1.9499999999999995
30
0
11
-0.5249999999999978
21
-0.94999999999999996
31
0
0
LINE
5
125
100
AcDbEntity
8
0
100
AcDbLine
10
-0.12500000000000053
20
-1.9500000000000002
30
0
11
-0.52500000000000058
21
-1.9499999999999995
31
0
0
LINE
5
126
100
AcDbEntity
8
0
100
AcDbLine
10
-0.52500000000011227
20
1.1899999999999997
30
0
11
-0.12499999999988756
21
1.9500000000000002
31
0
0
LINE
5
127
100
AcDbEntity
8
0
100
AcDbLine
10
-0.12500000000011516
20
1.1899999999999997
30
0
11
-0.52499999999988467
21
1.9500000000000002
31
0
0
LINE
5
128
100
AcDbEntity
8
0
100
AcDbLine
10
-0.12499999999988756
20
1.9500000000000002
30
0
11
-0.12500000000011516
21
1.1899999999999997
31
0
0
LINE
5
129
100
AcDbEntity
8
0
100
AcDbLine
10
-0.52499999999988467
20
1.9500000000000002
30
0
11
-0.12499999999988756
21
1.9500000000000002
31
0
0
LINE
5
130
100
AcDbEntity
8
0
100
AcDbLine
10
-0.52500000000011227
20
1.1899999999999997
30
0
11
-0.52499999999988467
21
1.9500000000000002
31
0
0
LINE
5
131
100
AcDbEntity
8
0
100
AcDbLine
10
-0.12500000000011516
20
1.1899999999999997
30
0
11
-0.52500000000011227
21
1.1899999999999997
31
0
0
LINE
5
132
100
AcDbEntity
8
0
100
AcDbLine
10
0.12499999999999942
20
-1.9499999999999995
30
0
11
0.52499999999999936
21
-0.94999999999999996
31
0
0
LINE
5
133
100
AcDbEntity
8
0
100
AcDbLine
10
0.52499999999999947
20
-1.9500000000000002
30
0
11
0.12500000000000219
21
-0.94999999999999996
31
0
0
LINE
5
134
100
AcDbEntity
8
0
100
AcDbLine
10
0.52499999999999936
20
-0.94999999999999996
30
0
11
0.52499999999999947
21
-1.9500000000000002
31
0
0
LINE
5
135
100
AcDbEntity
8
0
100
AcDbLine
10
0.12500000000000219
20
-0.94999999999999996
30
0
11
0.52499999999999936
21
-0.94999999999999996
31
0
0
LINE
5
136
100
AcDbEntity
8
0
100
AcDbLine
10
0.12499999999999942
20
-1.9499999999999995
30
0
11
0.12500000000000219
21
-0.94999999999999996
31
0
0
LINE
5
137
100
AcDbEntity
8
0
100
AcDbLine
10
0.52499999999999947
20
-1.9500000000000002
30
0
11
0.12499999999999942
21
-1.9499999999999995
31
0
0
LINE
5
138
100
AcDbEntity
8
0
100
AcDbLine
10
0.1249999999998877
20
1.1899999999999997
30
0
11
0.52500000000011249
21
1.9500000000000002
31
0
0
LINE
5
139
100
AcDbEntity
8
0
100
AcDbLine
10
0.52499999999988489
20
1.1899999999999997
30
0
11
0.1250000000001153
21
1.9500000000000002
31
0
0
LINE
5
140
100
AcDbEntity
8
0
100
AcDbLine
10
0.52500000000011249
20
1.9500000000000002
30
0
11
0.52499999999988489
21
1.1899999999999997
31
0
0
LINE
5
141
100
AcDbEntity
8
0
100
AcDbLine
10
0.1250000000001153
20
1.9500000000000002
30
0
11
0.52500000000011249
21
1.9500000000000002
31
0
0
LINE
5
142
100
AcDbEntity
8
0
100
AcDbLine
10
0.1249999999998877
20
1.1899999999999997
30
0
11
0.1250000000001153
21
1.9500000000000002
31
0
0
LINE
5
143
100
AcDbEntity
8
0
100
AcDbLine
10
0.52499999999988489
20
1.1899999999999997
30
0
11
0.1249999999998877
21
1.1899999999999997
31
0
0
LINE
5
144
100
AcDbEntity
8
0
100
AcDbLine
10
0.77499999999999947
20
-1.9499999999999995
30
0
11
1.1749999999999994
21
-0.94999999999999996
31
0
0
LINE
5
145
100
AcDbEntity
8
0
100
AcDbLine
10
1.1749999999999996
20
-1.9500000000000002
30
0
11
0.77500000000000224
21
-0.94999999999999996
31
0
0
LINE
5
146
100
AcDbEntity
8
0
100
AcDbLine
10
1.1749999999999994
20
-0.94999999999999996
30
0
11
1.1749999999999996
21
-1.9500000000000002
31
0
0
LINE
5
147
100
AcDbEntity
8
0
100
AcDbLine
10
0.77500000000000224
20
-0.94999999999999996
30
0
11
1.1749999999999994
21
-0.94999999999999996
31
0
0
LINE
5
148
100
AcDbEntity
8
0
100
AcDbLine
10
0.77499999999999947
20
-1.9499999999999995
30
0
11
0.77500000000000224
21
-0.94999999999999996
31
0
0
LINE
5
149
100
AcDbEntity
8
0
100
AcDbLine
10
1.1749999999999996
20
-1.9500000000000002
30
0
11
0.77499999999999947
21
-1.9499999999999995
31
0
0
LINE
5
150
100
AcDbEntity
8
0
100
AcDbLine
10
0.77499999999988778
20
1.1899999999999997
30
0
11
1.1750000000001124
21
1.9500000000000002
31
0
0
LINE
5
151
100
AcDbEntity
8
0
100
AcDbLine
10
1.1749999999998848
20
1.1899999999999997
30
0
11
0.77500000000011537
21
1.9500000000000002
31
0
0
LINE
5
152
100
AcDbEntity
8
0
100
AcDbLine
10
1.1750000000001124
20
1.9500000000000002
30
0
11
1.1749999999998848
21
1.1899999999999997
31
0
0
LINE
5
153
100
AcDbEntity
8
0
100
AcDbLine
10
0.77500000000011537
20
1.9500000000000002
30
0
11
1.1750000000001124
21
1.9500000000000002
31
0
0
LINE
5
154
100
AcDbEntity
8
0
100
AcDbLine
10
0.77499999999988778
20
1.1899999999999997
30
0
11
0.77500000000011537
21
1.9500000000000002
31
0
0
LINE
5
155
100
AcDbEntity
8
0
100
AcDbLine
10
1.1749999999998848
20
1.1899999999999997
30
0
11
0.77499999999988778
21
1.1899999999999997
31
0
0
ENDSEC
0
SECTION
2
OBJECTS
0
DICTIONARY
5
C
100
AcDbDictionary
3
ACAD_GROUP
350
D
3
ACAD_MLINESTYLE
350
17
0
DICTIONARY
5
D
100
AcDbDictionary
0
DICTIONARY
5
1A
330
C
100
AcDbDictionary
0
DICTIONARY
5
17
100
AcDbDictionary
0
ENDSEC
0
EOF
