%TF.GenerationSoftware,Altium Limited,Altium Designer,24.10.1 (45)*%
G04 Layer_Color=0*
%FSLAX45Y45*%
%MOMM*%
%TF.SameCoordinates,5FB93C32-CF51-4A86-A7AC-1E4FFFE00694*%
%TF.FilePolarity,Positive*%
%TF.FileFunction,Plated,1,4,PTH,Drill*%
%TF.Part,Single*%
G01*
G75*
%TA.AperFunction,ComponentDrill*%
%ADD49C,0.90000*%
%ADD50C,2.20000*%
%TA.AperFunction,ViaDrill,NotFilled*%
%ADD51C,0.20000*%
D49*
X1661998Y2538000D02*
D03*
X1407998D02*
D03*
X1153998D02*
D03*
X899998D02*
D03*
X645998D02*
D03*
X391998D02*
D03*
X137998D02*
D03*
Y4062000D02*
D03*
X391998D02*
D03*
X645998D02*
D03*
X899998D02*
D03*
X1153998D02*
D03*
X1407998D02*
D03*
X1661998D02*
D03*
D50*
X2680000Y1370000D02*
D03*
Y900000D02*
D03*
D51*
X2920000Y5540000D02*
D03*
X2530000Y3070000D02*
D03*
Y2570000D02*
D03*
Y3570000D02*
D03*
X499999Y3500000D02*
D03*
Y3400000D02*
D03*
X599999Y3500000D02*
D03*
Y3400000D02*
D03*
X699999D02*
D03*
Y3500000D02*
D03*
X1160000Y1460000D02*
D03*
X699999Y3200000D02*
D03*
Y3100000D02*
D03*
X60000Y3800000D02*
D03*
X2530000Y2500000D02*
D03*
X1070000Y1450000D02*
D03*
X1820000Y5740000D02*
D03*
X670000Y4890000D02*
D03*
X2480000D02*
D03*
X3150000Y5950000D02*
D03*
X3670000Y6050000D02*
D03*
X4010000D02*
D03*
X4560000D02*
D03*
X4160000Y6160000D02*
D03*
X4900000Y6070000D02*
D03*
X4860000Y6490000D02*
D03*
X4280000Y6510000D02*
D03*
X3480000Y6520000D02*
D03*
X2640000Y6510000D02*
D03*
X1740000D02*
D03*
X1140000Y6470000D02*
D03*
X570000Y5980000D02*
D03*
X140000Y5420000D02*
D03*
X90000Y4920000D02*
D03*
X1450000Y4390000D02*
D03*
X720000Y4470000D02*
D03*
X110000Y4430000D02*
D03*
X3100000Y5070000D02*
D03*
X3120000Y2810000D02*
D03*
X3110000Y3600000D02*
D03*
X3130000Y1830000D02*
D03*
X3140000Y1090000D02*
D03*
X3110000Y3800000D02*
D03*
X3120000Y80000D02*
D03*
X4020000Y70000D02*
D03*
X3160000Y340000D02*
D03*
X3950000Y330000D02*
D03*
X4930000Y100000D02*
D03*
X4900000Y520000D02*
D03*
X3160000Y630000D02*
D03*
X2390000Y100000D02*
D03*
X1160000Y140000D02*
D03*
X350000Y950000D02*
D03*
X90000Y1320000D02*
D03*
X100000Y2180000D02*
D03*
X1000000Y2200000D02*
D03*
X60000Y2740000D02*
D03*
Y3270000D02*
D03*
X599999Y3100000D02*
D03*
Y3200000D02*
D03*
X499999Y3100000D02*
D03*
Y3200000D02*
D03*
X1700000Y1740000D02*
D03*
X3040000Y5550000D02*
D03*
X4630000Y6080000D02*
D03*
X2820000Y5550000D02*
D03*
X4640000Y500000D02*
D03*
X1010000Y5780000D02*
D03*
X1390000Y5400000D02*
D03*
Y5980000D02*
D03*
X1190000D02*
D03*
X1290000Y5300000D02*
D03*
Y5880000D02*
D03*
X1390000Y5780000D02*
D03*
X1290000Y5680000D02*
D03*
X1190000Y5780000D02*
D03*
Y5600000D02*
D03*
X1390000D02*
D03*
X1290000Y5500000D02*
D03*
X1190000Y5400000D02*
D03*
X1100000Y5500000D02*
D03*
X1010000Y5600000D02*
D03*
X1100000Y5680000D02*
D03*
Y5880000D02*
D03*
X1010000Y5980000D02*
D03*
X910000Y5880000D02*
D03*
X810000Y5780000D02*
D03*
X910000Y5680000D02*
D03*
X810000Y5600000D02*
D03*
X910000Y5500000D02*
D03*
X810000Y5400000D02*
D03*
X910000Y5300000D02*
D03*
X1010000Y5400000D02*
D03*
X810000Y5980000D02*
D03*
X1100000Y5300000D02*
D03*
X4410000Y190000D02*
D03*
X4590000Y450000D02*
D03*
X4605000Y120000D02*
D03*
X4775000D02*
D03*
X4790500Y299999D02*
D03*
X4409500D02*
D03*
%TF.MD5,c3827e831dcbce3328106ae234955990*%
M02*
