%TF.GenerationSoftware,Altium Limited,Altium Designer,24.10.1 (45)*%
G04 Layer_Physical_Order=3*
G04 Layer_Color=16440176*
%FSLAX45Y45*%
%MOMM*%
%TF.SameCoordinates,5FB93C32-CF51-4A86-A7AC-1E4FFFE00694*%
%TF.FilePolarity,Positive*%
%TF.FileFunction,Copper,L3,Inr,Signal*%
%TF.Part,Single*%
G01*
G75*
%TA.AperFunction,ViaPad*%
%ADD20C,0.45000*%
G36*
X1199997Y6579609D02*
X1199999Y6579609D01*
X1200000Y6579609D01*
X4899978Y6579609D01*
X4907823Y6579601D01*
X4923215Y6576542D01*
X4937706Y6570543D01*
X4950745Y6561833D01*
X4961834Y6550745D01*
X4970547Y6537708D01*
X4976549Y6523220D01*
X4979609Y6507840D01*
X4979609Y6500000D01*
Y6500000D01*
Y6500000D01*
X4979609Y6100025D01*
X4979600Y6092160D01*
X4976539Y6076772D01*
X4970538Y6062284D01*
X4961828Y6049248D01*
X4950740Y6038161D01*
X4937702Y6029449D01*
X4923217Y6023449D01*
X4907840Y6020390D01*
X4900000Y6020391D01*
X4900000D01*
X4900000D01*
X3300000D01*
X3299491Y6020289D01*
X3298977Y6020365D01*
X3289165Y6019872D01*
X3287709Y6019506D01*
X3286210D01*
X3266985Y6015681D01*
X3265129Y6014913D01*
X3263160Y6014521D01*
X3245051Y6007020D01*
X3243381Y6005904D01*
X3241525Y6005136D01*
X3225228Y5994246D01*
X3223808Y5992826D01*
X3222138Y5991710D01*
X3208278Y5977850D01*
X3207162Y5976181D01*
X3205742Y5974760D01*
X3194852Y5958463D01*
X3194084Y5956607D01*
X3192968Y5954937D01*
X3185467Y5936828D01*
X3185075Y5934858D01*
X3184307Y5933003D01*
X3180483Y5913778D01*
Y5912267D01*
X3180115Y5910800D01*
X3179634Y5901000D01*
X3179708Y5900498D01*
X3179609Y5900000D01*
Y700000D01*
X3179708Y699501D01*
X3179634Y698999D01*
X3180116Y689188D01*
X3180483Y687722D01*
Y686210D01*
X3184308Y666984D01*
X3185076Y665129D01*
X3185468Y663158D01*
X3192970Y645048D01*
X3194085Y643379D01*
X3194854Y641523D01*
X3205745Y625224D01*
X3207166Y623804D01*
X3208282Y622134D01*
X3222143Y608274D01*
X3223813Y607158D01*
X3225234Y605738D01*
X3241533Y594848D01*
X3243390Y594079D01*
X3245059Y592964D01*
X3263170Y585464D01*
X3265139Y585072D01*
X3266995Y584304D01*
X3286222Y580481D01*
X3287734Y580481D01*
X3289200Y580114D01*
X3299001Y579634D01*
X3299503Y579708D01*
X3299999Y579609D01*
X4899982D01*
X4907826Y579602D01*
X4923217Y576543D01*
X4937705Y570544D01*
X4950744Y561834D01*
X4961832Y550748D01*
X4970544Y537710D01*
X4976546Y523222D01*
X4979605Y507845D01*
X4979605Y500004D01*
Y500004D01*
D01*
X4979600Y99992D01*
D01*
X4979600Y92151D01*
X4976541Y76773D01*
X4970540Y62286D01*
X4961828Y49248D01*
X4950742Y38161D01*
X4937704Y29450D01*
X4923218Y23450D01*
X4907838Y20390D01*
X4899999D01*
X1199994Y20391D01*
D01*
X1178225Y20391D01*
X1135524Y28886D01*
X1095301Y45547D01*
X1059099Y69736D01*
X1043707Y85129D01*
X85127Y1043705D01*
X85126Y1043705D01*
X85126Y1043706D01*
X69731Y1059099D01*
X45542Y1095300D01*
X28881Y1135525D01*
X20389Y1178228D01*
X20390Y1199997D01*
X20390Y1199998D01*
X20390Y1199999D01*
Y5400051D01*
Y5421815D01*
X28884Y5464504D01*
X45545Y5504715D01*
X69733Y5540903D01*
X85126Y5556289D01*
X85127Y5556291D01*
X85128Y5556292D01*
X1043707Y6514870D01*
X1043707Y6514871D01*
X1059094Y6530258D01*
X1095297Y6554454D01*
X1135522Y6571118D01*
X1178227Y6579611D01*
X1199997Y6579609D01*
D02*
G37*
%LPC*%
G36*
X1916743Y6470000D02*
X1883257D01*
X1850413Y6463467D01*
X1819475Y6450652D01*
X1791631Y6432047D01*
X1767953Y6408368D01*
X1749348Y6380525D01*
X1736533Y6349587D01*
X1730000Y6316743D01*
Y6283256D01*
X1736533Y6250413D01*
X1749348Y6219475D01*
X1767953Y6191631D01*
X1791631Y6167952D01*
X1819475Y6149348D01*
X1850413Y6136533D01*
X1883257Y6130000D01*
X1916743D01*
X1949587Y6136533D01*
X1980525Y6149348D01*
X2008369Y6167952D01*
X2032047Y6191631D01*
X2050652Y6219475D01*
X2063467Y6250413D01*
X2070000Y6283256D01*
Y6316743D01*
X2063467Y6349587D01*
X2050652Y6380525D01*
X2032047Y6408368D01*
X2008369Y6432047D01*
X1980525Y6450652D01*
X1949587Y6463467D01*
X1916743Y6470000D01*
D02*
G37*
G36*
X4635967Y6110000D02*
X4624032D01*
X4613006Y6105433D01*
X4604567Y6096994D01*
X4600000Y6085968D01*
Y6074033D01*
X4604567Y6063006D01*
X4613006Y6054567D01*
X4624032Y6050000D01*
X4635967D01*
X4646993Y6054567D01*
X4655433Y6063006D01*
X4660000Y6074033D01*
Y6085968D01*
X4655433Y6096994D01*
X4646993Y6105433D01*
X4635967Y6110000D01*
D02*
G37*
G36*
X2928454Y5582500D02*
X2911546D01*
X2895926Y5576030D01*
X2883970Y5564074D01*
X2877500Y5548454D01*
Y5531546D01*
X2883970Y5515926D01*
X2895926Y5503970D01*
X2911546Y5497500D01*
X2928454D01*
X2944074Y5503970D01*
X2956030Y5515926D01*
X2962500Y5531546D01*
Y5548454D01*
X2956030Y5564074D01*
X2944074Y5576030D01*
X2928454Y5582500D01*
D02*
G37*
G36*
X1918960Y5016500D02*
X1881040D01*
X1843850Y5009102D01*
X1808817Y4994591D01*
X1777289Y4973524D01*
X1750476Y4946711D01*
X1729409Y4915183D01*
X1714898Y4880150D01*
X1707500Y4842960D01*
Y4805040D01*
X1714898Y4767850D01*
X1729409Y4732817D01*
X1750476Y4701289D01*
X1777289Y4674476D01*
X1808817Y4653409D01*
X1843850Y4638898D01*
X1881040Y4631500D01*
X1918960D01*
X1956150Y4638898D01*
X1991183Y4653409D01*
X2022711Y4674476D01*
X2049524Y4701289D01*
X2070591Y4732817D01*
X2085102Y4767850D01*
X2092500Y4805040D01*
Y4842960D01*
X2085102Y4880150D01*
X2070591Y4915183D01*
X2049524Y4946711D01*
X2022711Y4973524D01*
X1991183Y4994591D01*
X1956150Y5009102D01*
X1918960Y5016500D01*
D02*
G37*
G36*
X1670556Y4127000D02*
X1653441D01*
X1636909Y4122570D01*
X1622087Y4114013D01*
X1609985Y4101911D01*
X1601428Y4087089D01*
X1596998Y4070558D01*
Y4053442D01*
X1601428Y4036911D01*
X1609985Y4022089D01*
X1622087Y4009987D01*
X1636909Y4001430D01*
X1653441Y3997000D01*
X1670556D01*
X1687087Y4001430D01*
X1701909Y4009987D01*
X1714011Y4022089D01*
X1722568Y4036911D01*
X1726998Y4053442D01*
Y4070558D01*
X1722568Y4087089D01*
X1714011Y4101911D01*
X1701909Y4114013D01*
X1687087Y4122570D01*
X1670556Y4127000D01*
D02*
G37*
G36*
X1416556D02*
X1399441D01*
X1382909Y4122570D01*
X1368087Y4114013D01*
X1355985Y4101911D01*
X1347428Y4087089D01*
X1342998Y4070558D01*
Y4053442D01*
X1347428Y4036911D01*
X1355985Y4022089D01*
X1368087Y4009987D01*
X1382909Y4001430D01*
X1399441Y3997000D01*
X1416556D01*
X1433087Y4001430D01*
X1447909Y4009987D01*
X1460011Y4022089D01*
X1468568Y4036911D01*
X1472998Y4053442D01*
Y4070558D01*
X1468568Y4087089D01*
X1460011Y4101911D01*
X1447909Y4114013D01*
X1433087Y4122570D01*
X1416556Y4127000D01*
D02*
G37*
G36*
X1162556D02*
X1145441D01*
X1128909Y4122570D01*
X1114087Y4114013D01*
X1101985Y4101911D01*
X1093428Y4087089D01*
X1088998Y4070558D01*
Y4053442D01*
X1093428Y4036911D01*
X1101985Y4022089D01*
X1114087Y4009987D01*
X1128909Y4001430D01*
X1145441Y3997000D01*
X1162556D01*
X1179087Y4001430D01*
X1193909Y4009987D01*
X1206011Y4022089D01*
X1214568Y4036911D01*
X1218998Y4053442D01*
Y4070558D01*
X1214568Y4087089D01*
X1206011Y4101911D01*
X1193909Y4114013D01*
X1179087Y4122570D01*
X1162556Y4127000D01*
D02*
G37*
G36*
X908556D02*
X891441D01*
X874909Y4122570D01*
X860087Y4114013D01*
X847985Y4101911D01*
X839428Y4087089D01*
X834998Y4070558D01*
Y4053442D01*
X839428Y4036911D01*
X847985Y4022089D01*
X860087Y4009987D01*
X874909Y4001430D01*
X891441Y3997000D01*
X908556D01*
X925087Y4001430D01*
X939909Y4009987D01*
X952011Y4022089D01*
X960568Y4036911D01*
X964998Y4053442D01*
Y4070558D01*
X960568Y4087089D01*
X952011Y4101911D01*
X939909Y4114013D01*
X925087Y4122570D01*
X908556Y4127000D01*
D02*
G37*
G36*
X654556D02*
X637441D01*
X620909Y4122570D01*
X606087Y4114013D01*
X593985Y4101911D01*
X585428Y4087089D01*
X580998Y4070558D01*
Y4053442D01*
X585428Y4036911D01*
X593985Y4022089D01*
X606087Y4009987D01*
X620909Y4001430D01*
X637441Y3997000D01*
X654556D01*
X671087Y4001430D01*
X685909Y4009987D01*
X698011Y4022089D01*
X706568Y4036911D01*
X710998Y4053442D01*
Y4070558D01*
X706568Y4087089D01*
X698011Y4101911D01*
X685909Y4114013D01*
X671087Y4122570D01*
X654556Y4127000D01*
D02*
G37*
G36*
X400556D02*
X383441D01*
X366909Y4122570D01*
X352087Y4114013D01*
X339985Y4101911D01*
X331428Y4087089D01*
X326998Y4070558D01*
Y4053442D01*
X331428Y4036911D01*
X339985Y4022089D01*
X352087Y4009987D01*
X366909Y4001430D01*
X383441Y3997000D01*
X400556D01*
X417087Y4001430D01*
X431909Y4009987D01*
X444011Y4022089D01*
X452568Y4036911D01*
X456998Y4053442D01*
Y4070558D01*
X452568Y4087089D01*
X444011Y4101911D01*
X431909Y4114013D01*
X417087Y4122570D01*
X400556Y4127000D01*
D02*
G37*
G36*
X146556D02*
X129441D01*
X112909Y4122570D01*
X98087Y4114013D01*
X85985Y4101911D01*
X77428Y4087089D01*
X72998Y4070558D01*
Y4053442D01*
X77428Y4036911D01*
X85985Y4022089D01*
X98087Y4009987D01*
X112909Y4001430D01*
X129441Y3997000D01*
X146556D01*
X163087Y4001430D01*
X177909Y4009987D01*
X190011Y4022089D01*
X198568Y4036911D01*
X202998Y4053442D01*
Y4070558D01*
X198568Y4087089D01*
X190011Y4101911D01*
X177909Y4114013D01*
X163087Y4122570D01*
X146556Y4127000D01*
D02*
G37*
G36*
X708453Y3542500D02*
X691545D01*
X675925Y3536030D01*
X663969Y3524074D01*
X657499Y3508453D01*
Y3491546D01*
X663969Y3475926D01*
X675925Y3463970D01*
X691545Y3457500D01*
X708453D01*
X724073Y3463970D01*
X736029Y3475926D01*
X742499Y3491546D01*
Y3508453D01*
X736029Y3524074D01*
X724073Y3536030D01*
X708453Y3542500D01*
D02*
G37*
G36*
X608453D02*
X591545D01*
X575925Y3536030D01*
X563969Y3524074D01*
X557499Y3508453D01*
Y3491546D01*
X563969Y3475926D01*
X575925Y3463970D01*
X591545Y3457500D01*
X608453D01*
X624073Y3463970D01*
X636029Y3475926D01*
X642499Y3491546D01*
Y3508453D01*
X636029Y3524074D01*
X624073Y3536030D01*
X608453Y3542500D01*
D02*
G37*
G36*
X508453D02*
X491546D01*
X475925Y3536030D01*
X463970Y3524074D01*
X457499Y3508453D01*
Y3491546D01*
X463970Y3475926D01*
X475925Y3463970D01*
X491546Y3457500D01*
X508453D01*
X524073Y3463970D01*
X536029Y3475926D01*
X542499Y3491546D01*
Y3508453D01*
X536029Y3524074D01*
X524073Y3536030D01*
X508453Y3542500D01*
D02*
G37*
G36*
X708453Y3442500D02*
X691545D01*
X675925Y3436029D01*
X663969Y3424074D01*
X657499Y3408453D01*
Y3391546D01*
X663969Y3375926D01*
X675925Y3363970D01*
X691545Y3357500D01*
X708453D01*
X724073Y3363970D01*
X736029Y3375926D01*
X742499Y3391546D01*
Y3408453D01*
X736029Y3424074D01*
X724073Y3436029D01*
X708453Y3442500D01*
D02*
G37*
G36*
X608453D02*
X591545D01*
X575925Y3436029D01*
X563969Y3424074D01*
X557499Y3408453D01*
Y3391546D01*
X563969Y3375926D01*
X575925Y3363970D01*
X591545Y3357500D01*
X608453D01*
X624073Y3363970D01*
X636029Y3375926D01*
X642499Y3391546D01*
Y3408453D01*
X636029Y3424074D01*
X624073Y3436029D01*
X608453Y3442500D01*
D02*
G37*
G36*
X508453D02*
X491546D01*
X475925Y3436029D01*
X463970Y3424074D01*
X457499Y3408453D01*
Y3391546D01*
X463970Y3375926D01*
X475925Y3363970D01*
X491546Y3357500D01*
X508453D01*
X524073Y3363970D01*
X536029Y3375926D01*
X542499Y3391546D01*
Y3408453D01*
X536029Y3424074D01*
X524073Y3436029D01*
X508453Y3442500D01*
D02*
G37*
G36*
X1670556Y2603000D02*
X1653441D01*
X1636909Y2598570D01*
X1622087Y2590013D01*
X1609985Y2577911D01*
X1601428Y2563089D01*
X1596998Y2546558D01*
Y2529442D01*
X1601428Y2512911D01*
X1609985Y2498089D01*
X1622087Y2485987D01*
X1636909Y2477430D01*
X1653441Y2473000D01*
X1670556D01*
X1687087Y2477430D01*
X1701909Y2485987D01*
X1714011Y2498089D01*
X1722568Y2512911D01*
X1726998Y2529442D01*
Y2546558D01*
X1722568Y2563089D01*
X1714011Y2577911D01*
X1701909Y2590013D01*
X1687087Y2598570D01*
X1670556Y2603000D01*
D02*
G37*
G36*
X1162556D02*
X1145441D01*
X1128909Y2598570D01*
X1114087Y2590013D01*
X1101985Y2577911D01*
X1093428Y2563089D01*
X1088998Y2546558D01*
Y2529442D01*
X1093428Y2512911D01*
X1101985Y2498089D01*
X1114087Y2485987D01*
X1128909Y2477430D01*
X1145441Y2473000D01*
X1162556D01*
X1179087Y2477430D01*
X1193909Y2485987D01*
X1206011Y2498089D01*
X1214568Y2512911D01*
X1218998Y2529442D01*
Y2546558D01*
X1214568Y2563089D01*
X1206011Y2577911D01*
X1193909Y2590013D01*
X1179087Y2598570D01*
X1162556Y2603000D01*
D02*
G37*
G36*
X908556D02*
X891441D01*
X874909Y2598570D01*
X860087Y2590013D01*
X847985Y2577911D01*
X839428Y2563089D01*
X834998Y2546558D01*
Y2529442D01*
X839428Y2512911D01*
X847985Y2498089D01*
X860087Y2485987D01*
X874909Y2477430D01*
X891441Y2473000D01*
X908556D01*
X925087Y2477430D01*
X939909Y2485987D01*
X952011Y2498089D01*
X960568Y2512911D01*
X964998Y2529442D01*
Y2546558D01*
X960568Y2563089D01*
X952011Y2577911D01*
X939909Y2590013D01*
X925087Y2598570D01*
X908556Y2603000D01*
D02*
G37*
G36*
X654556D02*
X637441D01*
X620909Y2598570D01*
X606087Y2590013D01*
X593985Y2577911D01*
X585428Y2563089D01*
X580998Y2546558D01*
Y2529442D01*
X585428Y2512911D01*
X593985Y2498089D01*
X606087Y2485987D01*
X620909Y2477430D01*
X637441Y2473000D01*
X654556D01*
X671087Y2477430D01*
X685909Y2485987D01*
X698011Y2498089D01*
X706568Y2512911D01*
X710998Y2529442D01*
Y2546558D01*
X706568Y2563089D01*
X698011Y2577911D01*
X685909Y2590013D01*
X671087Y2598570D01*
X654556Y2603000D01*
D02*
G37*
G36*
X400556D02*
X383441D01*
X366909Y2598570D01*
X352087Y2590013D01*
X339985Y2577911D01*
X331428Y2563089D01*
X326998Y2546558D01*
Y2529442D01*
X331428Y2512911D01*
X339985Y2498089D01*
X352087Y2485987D01*
X366909Y2477430D01*
X383441Y2473000D01*
X400556D01*
X417087Y2477430D01*
X431909Y2485987D01*
X444011Y2498089D01*
X452568Y2512911D01*
X456998Y2529442D01*
Y2546558D01*
X452568Y2563089D01*
X444011Y2577911D01*
X431909Y2590013D01*
X417087Y2598570D01*
X400556Y2603000D01*
D02*
G37*
G36*
X146556D02*
X129441D01*
X112909Y2598570D01*
X98087Y2590013D01*
X85985Y2577911D01*
X77428Y2563089D01*
X72998Y2546558D01*
Y2529442D01*
X77428Y2512911D01*
X85985Y2498089D01*
X98087Y2485987D01*
X112909Y2477430D01*
X129441Y2473000D01*
X146556D01*
X163087Y2477430D01*
X177909Y2485987D01*
X190011Y2498089D01*
X198568Y2512911D01*
X202998Y2529442D01*
Y2546558D01*
X198568Y2563089D01*
X190011Y2577911D01*
X177909Y2590013D01*
X163087Y2598570D01*
X146556Y2603000D01*
D02*
G37*
G36*
X318960Y1968500D02*
X281041D01*
X243850Y1961102D01*
X208817Y1946591D01*
X177289Y1925524D01*
X150476Y1898711D01*
X129409Y1867183D01*
X114898Y1832150D01*
X107500Y1794960D01*
Y1757040D01*
X114898Y1719850D01*
X129409Y1684817D01*
X150476Y1653289D01*
X177289Y1626476D01*
X208817Y1605409D01*
X243850Y1590898D01*
X281041Y1583500D01*
X318960D01*
X356150Y1590898D01*
X391183Y1605409D01*
X422712Y1626476D01*
X449525Y1653289D01*
X470591Y1684817D01*
X485102Y1719850D01*
X492500Y1757040D01*
Y1794960D01*
X485102Y1832150D01*
X470591Y1867183D01*
X449525Y1898711D01*
X422712Y1925524D01*
X391183Y1946591D01*
X356150Y1961102D01*
X318960Y1968500D01*
D02*
G37*
G36*
X1165967Y1490000D02*
X1154032D01*
X1143006Y1485433D01*
X1134567Y1476993D01*
X1130000Y1465967D01*
Y1454032D01*
X1134567Y1443006D01*
X1143006Y1434567D01*
X1154032Y1430000D01*
X1165967D01*
X1176994Y1434567D01*
X1185433Y1443006D01*
X1190000Y1454032D01*
Y1465967D01*
X1185433Y1476993D01*
X1176994Y1485433D01*
X1165967Y1490000D01*
D02*
G37*
G36*
X2697115Y1500000D02*
X2662885D01*
X2629822Y1491141D01*
X2600178Y1474026D01*
X2575974Y1449822D01*
X2558859Y1420178D01*
X2550000Y1387115D01*
Y1352885D01*
X2558859Y1319822D01*
X2575974Y1290178D01*
X2600178Y1265974D01*
X2629822Y1248859D01*
X2662885Y1240000D01*
X2697115D01*
X2730178Y1248859D01*
X2759822Y1265974D01*
X2784026Y1290178D01*
X2801141Y1319822D01*
X2810000Y1352885D01*
Y1387115D01*
X2801141Y1420178D01*
X2784026Y1449822D01*
X2759822Y1474026D01*
X2730178Y1491141D01*
X2697115Y1500000D01*
D02*
G37*
G36*
X1918365Y1451500D02*
X1881635D01*
X1846155Y1441993D01*
X1814345Y1423628D01*
X1788372Y1397655D01*
X1770007Y1365845D01*
X1760500Y1330365D01*
Y1293634D01*
X1770007Y1258155D01*
X1788372Y1226345D01*
X1814345Y1200372D01*
X1846155Y1182007D01*
X1881635Y1172500D01*
X1918365D01*
X1953845Y1182007D01*
X1985655Y1200372D01*
X2011628Y1226345D01*
X2029993Y1258155D01*
X2039500Y1293634D01*
Y1330365D01*
X2029993Y1365845D01*
X2011628Y1397655D01*
X1985655Y1423628D01*
X1953845Y1441993D01*
X1918365Y1451500D01*
D02*
G37*
G36*
X2697115Y1030000D02*
X2662885D01*
X2629822Y1021141D01*
X2600178Y1004026D01*
X2575974Y979822D01*
X2558859Y950178D01*
X2550000Y917115D01*
Y882885D01*
X2558859Y849822D01*
X2575974Y820178D01*
X2600178Y795974D01*
X2629822Y778859D01*
X2662885Y770000D01*
X2697115D01*
X2730178Y778859D01*
X2759822Y795974D01*
X2784026Y820178D01*
X2801141Y849822D01*
X2810000Y882885D01*
Y917115D01*
X2801141Y950178D01*
X2784026Y979822D01*
X2759822Y1004026D01*
X2730178Y1021141D01*
X2697115Y1030000D01*
D02*
G37*
G36*
X4595967Y480000D02*
X4584032D01*
X4573006Y475433D01*
X4564567Y466993D01*
X4560000Y455967D01*
Y444032D01*
X4564567Y433006D01*
X4573006Y424567D01*
X4584032Y420000D01*
X4595967D01*
X4606994Y424567D01*
X4615433Y433006D01*
X4620000Y444032D01*
Y455967D01*
X4615433Y466993D01*
X4606994Y475433D01*
X4595967Y480000D01*
D02*
G37*
G36*
X1916743Y470000D02*
X1883257D01*
X1850413Y463467D01*
X1819475Y450652D01*
X1791631Y432047D01*
X1767953Y408369D01*
X1749348Y380525D01*
X1736533Y349587D01*
X1730000Y316743D01*
Y283256D01*
X1736533Y250413D01*
X1749348Y219475D01*
X1767953Y191631D01*
X1791631Y167952D01*
X1819475Y149348D01*
X1850413Y136533D01*
X1883257Y130000D01*
X1916743D01*
X1949587Y136533D01*
X1980525Y149348D01*
X2008369Y167952D01*
X2032047Y191631D01*
X2050652Y219475D01*
X2063467Y250413D01*
X2070000Y283256D01*
Y316743D01*
X2063467Y349587D01*
X2050652Y380525D01*
X2032047Y408369D01*
X2008369Y432047D01*
X1980525Y450652D01*
X1949587Y463467D01*
X1916743Y470000D01*
D02*
G37*
G36*
X4610968Y150000D02*
X4599033D01*
X4588007Y145433D01*
X4579567Y136993D01*
X4575000Y125967D01*
Y114032D01*
X4579567Y103006D01*
X4588007Y94567D01*
X4599033Y90000D01*
X4610968D01*
X4621994Y94567D01*
X4630433Y103006D01*
X4635000Y114032D01*
Y125967D01*
X4630433Y136993D01*
X4621994Y145433D01*
X4610968Y150000D01*
D02*
G37*
%LPD*%
D20*
X2920000Y5540000D02*
D03*
X2530000Y3070000D02*
D03*
Y2570000D02*
D03*
Y3570000D02*
D03*
X499999Y3500000D02*
D03*
Y3400000D02*
D03*
X599999Y3500000D02*
D03*
Y3400000D02*
D03*
X699999D02*
D03*
Y3500000D02*
D03*
Y3200000D02*
D03*
Y3100000D02*
D03*
X60000Y3800000D02*
D03*
X2530000Y2500000D02*
D03*
X1070000Y1450000D02*
D03*
X1820000Y5740000D02*
D03*
X670000Y4890000D02*
D03*
X2480000D02*
D03*
X3150000Y5950000D02*
D03*
X3670000Y6050000D02*
D03*
X4010000D02*
D03*
X4560000D02*
D03*
X4160000Y6160000D02*
D03*
X4900000Y6070000D02*
D03*
X4860000Y6490000D02*
D03*
X4280000Y6510000D02*
D03*
X3480000Y6520000D02*
D03*
X2640000Y6510000D02*
D03*
X1740000D02*
D03*
X1140000Y6470000D02*
D03*
X570000Y5980000D02*
D03*
X140000Y5420000D02*
D03*
X90000Y4920000D02*
D03*
X1450000Y4390000D02*
D03*
X720000Y4470000D02*
D03*
X110000Y4430000D02*
D03*
X3100000Y5070000D02*
D03*
X3120000Y2810000D02*
D03*
X3110000Y3600000D02*
D03*
X3130000Y1830000D02*
D03*
X3140000Y1090000D02*
D03*
X3110000Y3800000D02*
D03*
X3120000Y80000D02*
D03*
X4020000Y70000D02*
D03*
X3160000Y340000D02*
D03*
X3950000Y330000D02*
D03*
X4930000Y100000D02*
D03*
X4900000Y520000D02*
D03*
X3160000Y630000D02*
D03*
X2390000Y100000D02*
D03*
X1160000Y140000D02*
D03*
X350000Y950000D02*
D03*
X90000Y1320000D02*
D03*
X100000Y2180000D02*
D03*
X1000000Y2200000D02*
D03*
X60000Y2740000D02*
D03*
Y3270000D02*
D03*
X599999Y3100000D02*
D03*
Y3200000D02*
D03*
X499999Y3100000D02*
D03*
Y3200000D02*
D03*
X1700000Y1740000D02*
D03*
X3040000Y5550000D02*
D03*
X2820000D02*
D03*
X4640000Y500000D02*
D03*
X1010000Y5780000D02*
D03*
X1390000Y5400000D02*
D03*
Y5980000D02*
D03*
X1190000D02*
D03*
X1290000Y5300000D02*
D03*
Y5880000D02*
D03*
X1390000Y5780000D02*
D03*
X1290000Y5680000D02*
D03*
X1190000Y5780000D02*
D03*
Y5600000D02*
D03*
X1390000D02*
D03*
X1290000Y5500000D02*
D03*
X1190000Y5400000D02*
D03*
X1100000Y5500000D02*
D03*
X1010000Y5600000D02*
D03*
X1100000Y5680000D02*
D03*
Y5880000D02*
D03*
X1010000Y5980000D02*
D03*
X910000Y5880000D02*
D03*
X810000Y5780000D02*
D03*
X910000Y5680000D02*
D03*
X810000Y5600000D02*
D03*
X910000Y5500000D02*
D03*
X810000Y5400000D02*
D03*
X910000Y5300000D02*
D03*
X1010000Y5400000D02*
D03*
X810000Y5980000D02*
D03*
X1100000Y5300000D02*
D03*
X4410000Y190000D02*
D03*
X4775000Y120000D02*
D03*
X4790500Y299999D02*
D03*
X4409500D02*
D03*
%TF.MD5,718b93295e0133aea3485045b7e5f6bc*%
M02*
