%TF.GenerationSoftware,Altium Limited,Altium Designer,24.10.1 (45)*%
G04 Layer_Color=8421504*
%FSLAX45Y45*%
%MOMM*%
%TF.SameCoordinates,5FB93C32-CF51-4A86-A7AC-1E4FFFE00694*%
%TF.FilePolarity,Positive*%
%TF.FileFunction,Paste,Top*%
%TF.Part,Single*%
G01*
G75*
%TA.AperFunction,SMDPad,CuDef*%
G04:AMPARAMS|DCode=10|XSize=3mm|YSize=2mm|CornerRadius=0.2mm|HoleSize=0mm|Usage=FLASHONLY|Rotation=180.000|XOffset=0mm|YOffset=0mm|HoleType=Round|Shape=RoundedRectangle|*
%AMROUNDEDRECTD10*
21,1,3.00000,1.60000,0,0,180.0*
21,1,2.60000,2.00000,0,0,180.0*
1,1,0.40000,-1.30000,0.80000*
1,1,0.40000,1.30000,0.80000*
1,1,0.40000,1.30000,-0.80000*
1,1,0.40000,-1.30000,-0.80000*
%
%ADD10ROUNDEDRECTD10*%
G04:AMPARAMS|DCode=11|XSize=1mm|YSize=0.9mm|CornerRadius=0.1125mm|HoleSize=0mm|Usage=FLASHONLY|Rotation=90.000|XOffset=0mm|YOffset=0mm|HoleType=Round|Shape=RoundedRectangle|*
%AMROUNDEDRECTD11*
21,1,1.00000,0.67500,0,0,90.0*
21,1,0.77500,0.90000,0,0,90.0*
1,1,0.22500,0.33750,0.38750*
1,1,0.22500,0.33750,-0.38750*
1,1,0.22500,-0.33750,-0.38750*
1,1,0.22500,-0.33750,0.38750*
%
%ADD11ROUNDEDRECTD11*%
G04:AMPARAMS|DCode=12|XSize=0.8mm|YSize=1.8mm|CornerRadius=0.04mm|HoleSize=0mm|Usage=FLASHONLY|Rotation=180.000|XOffset=0mm|YOffset=0mm|HoleType=Round|Shape=RoundedRectangle|*
%AMROUNDEDRECTD12*
21,1,0.80000,1.72000,0,0,180.0*
21,1,0.72000,1.80000,0,0,180.0*
1,1,0.08000,-0.36000,0.86000*
1,1,0.08000,0.36000,0.86000*
1,1,0.08000,0.36000,-0.86000*
1,1,0.08000,-0.36000,-0.86000*
%
%ADD12ROUNDEDRECTD12*%
G04:AMPARAMS|DCode=13|XSize=0.8mm|YSize=0.8mm|CornerRadius=0.1mm|HoleSize=0mm|Usage=FLASHONLY|Rotation=0.000|XOffset=0mm|YOffset=0mm|HoleType=Round|Shape=RoundedRectangle|*
%AMROUNDEDRECTD13*
21,1,0.80000,0.60000,0,0,0.0*
21,1,0.60000,0.80000,0,0,0.0*
1,1,0.20000,0.30000,-0.30000*
1,1,0.20000,-0.30000,-0.30000*
1,1,0.20000,-0.30000,0.30000*
1,1,0.20000,0.30000,0.30000*
%
%ADD13ROUNDEDRECTD13*%
%TA.AperFunction,ConnectorPad*%
G04:AMPARAMS|DCode=14|XSize=1mm|YSize=0.9mm|CornerRadius=0.1125mm|HoleSize=0mm|Usage=FLASHONLY|Rotation=90.000|XOffset=0mm|YOffset=0mm|HoleType=Round|Shape=RoundedRectangle|*
%AMROUNDEDRECTD14*
21,1,1.00000,0.67500,0,0,90.0*
21,1,0.77500,0.90000,0,0,90.0*
1,1,0.22500,0.33750,0.38750*
1,1,0.22500,0.33750,-0.38750*
1,1,0.22500,-0.33750,-0.38750*
1,1,0.22500,-0.33750,0.38750*
%
%ADD14ROUNDEDRECTD14*%
D10*
X599998Y3150000D02*
D03*
Y3450000D02*
D03*
D11*
X905000Y4540000D02*
D03*
X1075000D02*
D03*
X2514999Y3659999D02*
D03*
X2684998D02*
D03*
Y2660001D02*
D03*
X2514999D02*
D03*
X2684998Y3160002D02*
D03*
X2514999D02*
D03*
D12*
X4536500Y299999D02*
D03*
X4409500D02*
D03*
X4790500D02*
D03*
X4663500D02*
D03*
D13*
X2514998Y3799999D02*
D03*
X2684998D02*
D03*
Y3300002D02*
D03*
X2514998D02*
D03*
X2684998Y2800001D02*
D03*
X2514998D02*
D03*
D14*
X4605000Y120000D02*
D03*
X4775000D02*
D03*
%TF.MD5,c5e3c07d77931034da9cbfae0adc1b0c*%
M02*
