%TF.GenerationSoftware,Altium Limited,Altium Designer,24.10.1 (45)*%
G04 Layer_Physical_Order=1*
G04 Layer_Color=255*
%FSLAX45Y45*%
%MOMM*%
%TF.SameCoordinates,5FB93C32-CF51-4A86-A7AC-1E4FFFE00694*%
%TF.FilePolarity,Positive*%
%TF.FileFunction,Copper,L1,Top,Signal*%
%TF.Part,Single*%
G01*
G75*
%TA.AperFunction,SMDPad,CuDef*%
G04:AMPARAMS|DCode=10|XSize=3mm|YSize=2mm|CornerRadius=0.2mm|HoleSize=0mm|Usage=FLASHONLY|Rotation=180.000|XOffset=0mm|YOffset=0mm|HoleType=Round|Shape=RoundedRectangle|*
%AMROUNDEDRECTD10*
21,1,3.00000,1.60000,0,0,180.0*
21,1,2.60000,2.00000,0,0,180.0*
1,1,0.40000,-1.30000,0.80000*
1,1,0.40000,1.30000,0.80000*
1,1,0.40000,1.30000,-0.80000*
1,1,0.40000,-1.30000,-0.80000*
%
%ADD10ROUNDEDRECTD10*%
G04:AMPARAMS|DCode=11|XSize=1mm|YSize=0.9mm|CornerRadius=0.1125mm|HoleSize=0mm|Usage=FLASHONLY|Rotation=90.000|XOffset=0mm|YOffset=0mm|HoleType=Round|Shape=RoundedRectangle|*
%AMROUNDEDRECTD11*
21,1,1.00000,0.67500,0,0,90.0*
21,1,0.77500,0.90000,0,0,90.0*
1,1,0.22500,0.33750,0.38750*
1,1,0.22500,0.33750,-0.38750*
1,1,0.22500,-0.33750,-0.38750*
1,1,0.22500,-0.33750,0.38750*
%
%ADD11ROUNDEDRECTD11*%
G04:AMPARAMS|DCode=12|XSize=0.8mm|YSize=1.8mm|CornerRadius=0.04mm|HoleSize=0mm|Usage=FLASHONLY|Rotation=180.000|XOffset=0mm|YOffset=0mm|HoleType=Round|Shape=RoundedRectangle|*
%AMROUNDEDRECTD12*
21,1,0.80000,1.72000,0,0,180.0*
21,1,0.72000,1.80000,0,0,180.0*
1,1,0.08000,-0.36000,0.86000*
1,1,0.08000,0.36000,0.86000*
1,1,0.08000,0.36000,-0.86000*
1,1,0.08000,-0.36000,-0.86000*
%
%ADD12ROUNDEDRECTD12*%
G04:AMPARAMS|DCode=13|XSize=0.8mm|YSize=0.8mm|CornerRadius=0.1mm|HoleSize=0mm|Usage=FLASHONLY|Rotation=0.000|XOffset=0mm|YOffset=0mm|HoleType=Round|Shape=RoundedRectangle|*
%AMROUNDEDRECTD13*
21,1,0.80000,0.60000,0,0,0.0*
21,1,0.60000,0.80000,0,0,0.0*
1,1,0.20000,0.30000,-0.30000*
1,1,0.20000,-0.30000,-0.30000*
1,1,0.20000,-0.30000,0.30000*
1,1,0.20000,0.30000,0.30000*
%
%ADD13ROUNDEDRECTD13*%
%TA.AperFunction,ConnectorPad*%
G04:AMPARAMS|DCode=14|XSize=1mm|YSize=0.9mm|CornerRadius=0.1125mm|HoleSize=0mm|Usage=FLASHONLY|Rotation=90.000|XOffset=0mm|YOffset=0mm|HoleType=Round|Shape=RoundedRectangle|*
%AMROUNDEDRECTD14*
21,1,1.00000,0.67500,0,0,90.0*
21,1,0.77500,0.90000,0,0,90.0*
1,1,0.22500,0.33750,0.38750*
1,1,0.22500,0.33750,-0.38750*
1,1,0.22500,-0.33750,-0.38750*
1,1,0.22500,-0.33750,0.38750*
%
%ADD14ROUNDEDRECTD14*%
%TA.AperFunction,Conductor*%
%ADD15C,0.80000*%
%ADD16C,0.40000*%
%ADD17C,0.50000*%
%ADD18C,0.45000*%
%TA.AperFunction,ComponentPad*%
%ADD19C,3.20000*%
%TA.AperFunction,ViaPad*%
%ADD20C,0.45000*%
G36*
G01X1741998Y2538000D02*
G01Y2338000D01*
G01X1581998D01*
G01Y2538000D01*
G02X1661998Y2618000I80000J0D01*
G02X1741998Y2538000I0J-80000D01*
D02*
G37*
G36*
G01X1487998D02*
G01Y2338000D01*
G01X1327998D01*
G01Y2538000D01*
G02X1407998Y2618000I80000J0D01*
G02X1487998Y2538000I0J-80000D01*
D02*
G37*
G36*
G01X1233998D02*
G01Y2338000D01*
G01X1073998D01*
G01Y2538000D01*
G02X1153998Y2618000I80000J0D01*
G02X1233998Y2538000I0J-80000D01*
D02*
G37*
G36*
G01X979998D02*
G01Y2338000D01*
G01X819998D01*
G01Y2538000D01*
G02X899998Y2618000I80000J0D01*
G02X979998Y2538000I0J-80000D01*
D02*
G37*
G36*
G01X725998D02*
G01Y2338000D01*
G01X565998D01*
G01Y2538000D01*
G02X645998Y2618000I80000J0D01*
G02X725998Y2538000I0J-80000D01*
D02*
G37*
G36*
G01X471998D02*
G01Y2338000D01*
G01X311998D01*
G01Y2538000D01*
G02X391998Y2618000I80000J0D01*
G02X471998Y2538000I0J-80000D01*
D02*
G37*
G36*
G01X217998D02*
G01Y2338000D01*
G01X57998D01*
G01Y2538000D01*
G02X137998Y2618000I80000J0D01*
G02X217998Y2538000I0J-80000D01*
D02*
G37*
G36*
G01X57998Y4062000D02*
G01Y4262000D01*
G01X217998D01*
G01Y4062000D01*
G02X137998Y3982000I-80000J0D01*
G02X57998Y4062000I0J80000D01*
D02*
G37*
G36*
G01X311998D02*
G01Y4262000D01*
G01X471998D01*
G01Y4062000D01*
G02X391998Y3982000I-80000J0D01*
G02X311998Y4062000I0J80000D01*
D02*
G37*
G36*
G01X565998D02*
G01Y4262000D01*
G01X725998D01*
G01Y4062000D01*
G02X645998Y3982000I-80000J0D01*
G02X565998Y4062000I0J80000D01*
D02*
G37*
G36*
G01X819998D02*
G01Y4262000D01*
G01X979998D01*
G01Y4062000D01*
G02X899998Y3982000I-80000J0D01*
G02X819998Y4062000I0J80000D01*
D02*
G37*
G36*
G01X1073998D02*
G01Y4262000D01*
G01X1233998D01*
G01Y4062000D01*
G02X1153998Y3982000I-80000J0D01*
G02X1073998Y4062000I0J80000D01*
D02*
G37*
G36*
G01X1327998D02*
G01Y4262000D01*
G01X1487998D01*
G01Y4062000D01*
G02X1407998Y3982000I-80000J0D01*
G02X1327998Y4062000I0J80000D01*
D02*
G37*
G36*
G01X1581998D02*
G01Y4262000D01*
G01X1741998D01*
G01Y4062000D01*
G02X1661998Y3982000I-80000J0D01*
G02X1581998Y4062000I0J80000D01*
D02*
G37*
D10*
X599998Y3150000D02*
D03*
Y3450000D02*
D03*
D11*
X905000Y4540000D02*
D03*
X1075000D02*
D03*
X2514999Y3659999D02*
D03*
X2684998D02*
D03*
Y2660001D02*
D03*
X2514999D02*
D03*
X2684998Y3160002D02*
D03*
X2514999D02*
D03*
D12*
X4536500Y299999D02*
D03*
X4409500D02*
D03*
X4790500D02*
D03*
X4663500D02*
D03*
D13*
X2514998Y3799999D02*
D03*
X2684998D02*
D03*
Y3300002D02*
D03*
X2514998D02*
D03*
X2684998Y2800001D02*
D03*
X2514998D02*
D03*
D14*
X4605000Y120000D02*
D03*
X4775000D02*
D03*
D15*
X2920000Y2600000D02*
Y5540000D01*
X2460000Y2140000D02*
X2920000Y2600000D01*
X1400000Y2140000D02*
X2460000D01*
X1160000Y1400000D02*
Y1460000D01*
X2360000Y200000D02*
X4153840D01*
X1160000Y1400000D02*
X2360000Y200000D01*
X1153998Y2386002D02*
X1400000Y2140000D01*
X4153840Y200000D02*
X4250000Y103840D01*
X4588841D01*
X1153998Y2386002D02*
Y2538000D01*
X4605000Y115000D02*
Y120000D01*
Y125000D01*
X4588841Y103840D02*
X4595000Y110000D01*
X4600000D01*
X4605000Y115000D01*
X4780000Y125000D02*
Y156841D01*
X4790500Y167341D02*
Y299999D01*
X4775000Y120000D02*
X4780000Y125000D01*
Y156841D02*
X4790500Y167341D01*
X4663500Y178500D02*
Y299999D01*
X4605000Y125000D02*
X4610000Y130000D01*
X4615000D02*
X4663500Y178500D01*
X4610000Y130000D02*
X4615000D01*
D16*
X1661998Y4062000D02*
X1923999Y3799999D01*
X2514998D01*
X1153998Y4062000D02*
X2415997Y2800001D01*
X2514998D01*
X2169997Y3300002D02*
X2514998D01*
X1407998Y4062000D02*
X2169997Y3300002D01*
X1040000Y1630000D02*
X1150000D01*
X2340000Y440000D01*
X391998Y2278002D02*
X1040000Y1630000D01*
X3090000Y520000D02*
X4520000D01*
X2310000Y620000D02*
X2990000D01*
X3090000Y520000D01*
X645998Y2284002D02*
X2310000Y620000D01*
X2340000Y440000D02*
X4460000D01*
X1105000Y4570000D02*
X2805000Y6270000D01*
X4440000D02*
X4630000Y6080000D01*
X2805000Y6270000D02*
X4440000D01*
X4520000Y520000D02*
X4590000Y450000D01*
X4460000Y440000D02*
X4516500Y383500D01*
Y320000D02*
X4536500Y299999D01*
X4516500Y320000D02*
Y383500D01*
X899998Y4062000D02*
Y4534998D01*
X905000Y4540000D01*
X1075000D02*
Y4545000D01*
X1100000Y4570000D01*
X1105000D01*
X391998Y2278002D02*
Y2538000D01*
X645998Y2284002D02*
Y2538000D01*
X2684998Y3659999D02*
Y3799999D01*
Y2660001D02*
Y2800001D01*
Y3160002D02*
Y3300002D01*
D17*
X2530000Y3070000D02*
Y3145000D01*
X2514999Y3160002D02*
X2530000Y3145000D01*
Y2570000D02*
Y2645000D01*
X2514999Y2660001D02*
X2530000Y2645000D01*
X2514999Y3659999D02*
X2530000Y3644998D01*
Y3570000D02*
Y3644998D01*
D18*
X4410000Y190000D02*
Y299499D01*
X4409500Y299999D02*
X4410000Y299499D01*
D19*
X2680000Y1370000D02*
D03*
Y900000D02*
D03*
D20*
X2920000Y5540000D02*
D03*
X2530000Y3070000D02*
D03*
Y2570000D02*
D03*
Y3570000D02*
D03*
X499999Y3500000D02*
D03*
Y3400000D02*
D03*
X599999Y3500000D02*
D03*
Y3400000D02*
D03*
X699999D02*
D03*
Y3500000D02*
D03*
X1160000Y1460000D02*
D03*
X699999Y3200000D02*
D03*
Y3100000D02*
D03*
X60000Y3800000D02*
D03*
X2530000Y2500000D02*
D03*
X1070000Y1450000D02*
D03*
X1820000Y5740000D02*
D03*
X670000Y4890000D02*
D03*
X2480000D02*
D03*
X3150000Y5950000D02*
D03*
X3670000Y6050000D02*
D03*
X4010000D02*
D03*
X4560000D02*
D03*
X4160000Y6160000D02*
D03*
X4900000Y6070000D02*
D03*
X4860000Y6490000D02*
D03*
X4280000Y6510000D02*
D03*
X3480000Y6520000D02*
D03*
X2640000Y6510000D02*
D03*
X1740000D02*
D03*
X1140000Y6470000D02*
D03*
X570000Y5980000D02*
D03*
X140000Y5420000D02*
D03*
X90000Y4920000D02*
D03*
X1450000Y4390000D02*
D03*
X720000Y4470000D02*
D03*
X110000Y4430000D02*
D03*
X3100000Y5070000D02*
D03*
X3120000Y2810000D02*
D03*
X3110000Y3600000D02*
D03*
X3130000Y1830000D02*
D03*
X3140000Y1090000D02*
D03*
X3110000Y3800000D02*
D03*
X3120000Y80000D02*
D03*
X4020000Y70000D02*
D03*
X3160000Y340000D02*
D03*
X3950000Y330000D02*
D03*
X4930000Y100000D02*
D03*
X4900000Y520000D02*
D03*
X3160000Y630000D02*
D03*
X2390000Y100000D02*
D03*
X1160000Y140000D02*
D03*
X350000Y950000D02*
D03*
X90000Y1320000D02*
D03*
X100000Y2180000D02*
D03*
X1000000Y2200000D02*
D03*
X60000Y2740000D02*
D03*
Y3270000D02*
D03*
X599999Y3100000D02*
D03*
Y3200000D02*
D03*
X499999Y3100000D02*
D03*
Y3200000D02*
D03*
X1700000Y1740000D02*
D03*
X3040000Y5550000D02*
D03*
X4630000Y6080000D02*
D03*
X2820000Y5550000D02*
D03*
X4640000Y500000D02*
D03*
X1010000Y5780000D02*
D03*
X1390000Y5400000D02*
D03*
Y5980000D02*
D03*
X1190000D02*
D03*
X1290000Y5300000D02*
D03*
Y5880000D02*
D03*
X1390000Y5780000D02*
D03*
X1290000Y5680000D02*
D03*
X1190000Y5780000D02*
D03*
Y5600000D02*
D03*
X1390000D02*
D03*
X1290000Y5500000D02*
D03*
X1190000Y5400000D02*
D03*
X1100000Y5500000D02*
D03*
X1010000Y5600000D02*
D03*
X1100000Y5680000D02*
D03*
Y5880000D02*
D03*
X1010000Y5980000D02*
D03*
X910000Y5880000D02*
D03*
X810000Y5780000D02*
D03*
X910000Y5680000D02*
D03*
X810000Y5600000D02*
D03*
X910000Y5500000D02*
D03*
X810000Y5400000D02*
D03*
X910000Y5300000D02*
D03*
X1010000Y5400000D02*
D03*
X810000Y5980000D02*
D03*
X1100000Y5300000D02*
D03*
X4410000Y190000D02*
D03*
X4590000Y450000D02*
D03*
X4605000Y120000D02*
D03*
X4775000D02*
D03*
X4790500Y299999D02*
D03*
X4409500D02*
D03*
%TF.MD5,2c36654ce35d62731a1cd497f4a1c07f*%
M02*
