%TF.GenerationSoftware,Altium Limited,Altium Designer,24.10.1 (45)*%
G04 Layer_Physical_Order=4*
G04 Layer_Color=16711680*
%FSLAX45Y45*%
%MOMM*%
%TF.SameCoordinates,5FB93C32-CF51-4A86-A7AC-1E4FFFE00694*%
%TF.FilePolarity,Positive*%
%TF.FileFunction,Copper,L4,Bot,Signal*%
%TF.Part,Single*%
G01*
G75*
%TA.AperFunction,SMDPad,CuDef*%
G04:AMPARAMS|DCode=11|XSize=1mm|YSize=0.9mm|CornerRadius=0.1125mm|HoleSize=0mm|Usage=FLASHONLY|Rotation=90.000|XOffset=0mm|YOffset=0mm|HoleType=Round|Shape=RoundedRectangle|*
%AMROUNDEDRECTD11*
21,1,1.00000,0.67500,0,0,90.0*
21,1,0.77500,0.90000,0,0,90.0*
1,1,0.22500,0.33750,0.38750*
1,1,0.22500,0.33750,-0.38750*
1,1,0.22500,-0.33750,-0.38750*
1,1,0.22500,-0.33750,0.38750*
%
%ADD11ROUNDEDRECTD11*%
G04:AMPARAMS|DCode=12|XSize=0.8mm|YSize=1.8mm|CornerRadius=0.04mm|HoleSize=0mm|Usage=FLASHONLY|Rotation=180.000|XOffset=0mm|YOffset=0mm|HoleType=Round|Shape=RoundedRectangle|*
%AMROUNDEDRECTD12*
21,1,0.80000,1.72000,0,0,180.0*
21,1,0.72000,1.80000,0,0,180.0*
1,1,0.08000,-0.36000,0.86000*
1,1,0.08000,0.36000,0.86000*
1,1,0.08000,0.36000,-0.86000*
1,1,0.08000,-0.36000,-0.86000*
%
%ADD12ROUNDEDRECTD12*%
%TA.AperFunction,ConnectorPad*%
G04:AMPARAMS|DCode=14|XSize=1mm|YSize=0.9mm|CornerRadius=0.1125mm|HoleSize=0mm|Usage=FLASHONLY|Rotation=90.000|XOffset=0mm|YOffset=0mm|HoleType=Round|Shape=RoundedRectangle|*
%AMROUNDEDRECTD14*
21,1,1.00000,0.67500,0,0,90.0*
21,1,0.77500,0.90000,0,0,90.0*
1,1,0.22500,0.33750,0.38750*
1,1,0.22500,0.33750,-0.38750*
1,1,0.22500,-0.33750,-0.38750*
1,1,0.22500,-0.33750,0.38750*
%
%ADD14ROUNDEDRECTD14*%
%TA.AperFunction,Conductor*%
%ADD15C,0.80000*%
%ADD16C,0.40000*%
%TA.AperFunction,ComponentPad*%
%ADD19C,3.20000*%
%TA.AperFunction,ViaPad*%
%ADD20C,0.45000*%
%TA.AperFunction,SMDPad,CuDef*%
G04:AMPARAMS|DCode=21|XSize=7.34mm|YSize=6.35mm|CornerRadius=0.3175mm|HoleSize=0mm|Usage=FLASHONLY|Rotation=270.000|XOffset=0mm|YOffset=0mm|HoleType=Round|Shape=RoundedRectangle|*
%AMROUNDEDRECTD21*
21,1,7.34000,5.71500,0,0,270.0*
21,1,6.70500,6.35000,0,0,270.0*
1,1,0.63500,-2.85750,-3.35250*
1,1,0.63500,-2.85750,3.35250*
1,1,0.63500,2.85750,3.35250*
1,1,0.63500,2.85750,-3.35250*
%
%ADD21ROUNDEDRECTD21*%
G04:AMPARAMS|DCode=22|XSize=0.4mm|YSize=1mm|CornerRadius=0.05mm|HoleSize=0mm|Usage=FLASHONLY|Rotation=0.000|XOffset=0mm|YOffset=0mm|HoleType=Round|Shape=RoundedRectangle|*
%AMROUNDEDRECTD22*
21,1,0.40000,0.90000,0,0,0.0*
21,1,0.30000,1.00000,0,0,0.0*
1,1,0.10000,0.15000,-0.45000*
1,1,0.10000,-0.15000,-0.45000*
1,1,0.10000,-0.15000,0.45000*
1,1,0.10000,0.15000,0.45000*
%
%ADD22ROUNDEDRECTD22*%
G04:AMPARAMS|DCode=23|XSize=2.35mm|YSize=1.8mm|CornerRadius=0.09mm|HoleSize=0mm|Usage=FLASHONLY|Rotation=180.000|XOffset=0mm|YOffset=0mm|HoleType=Round|Shape=RoundedRectangle|*
%AMROUNDEDRECTD23*
21,1,2.35000,1.62000,0,0,180.0*
21,1,2.17000,1.80000,0,0,180.0*
1,1,0.18000,-1.08500,0.81000*
1,1,0.18000,1.08500,0.81000*
1,1,0.18000,1.08500,-0.81000*
1,1,0.18000,-1.08500,-0.81000*
%
%ADD23ROUNDEDRECTD23*%
G04:AMPARAMS|DCode=24|XSize=0.9mm|YSize=1.4mm|CornerRadius=0.045mm|HoleSize=0mm|Usage=FLASHONLY|Rotation=180.000|XOffset=0mm|YOffset=0mm|HoleType=Round|Shape=RoundedRectangle|*
%AMROUNDEDRECTD24*
21,1,0.90000,1.31000,0,0,180.0*
21,1,0.81000,1.40000,0,0,180.0*
1,1,0.09000,-0.40500,0.65500*
1,1,0.09000,0.40500,0.65500*
1,1,0.09000,0.40500,-0.65500*
1,1,0.09000,-0.40500,-0.65500*
%
%ADD24ROUNDEDRECTD24*%
%TA.AperFunction,ComponentPad*%
%ADD25C,1.50000*%
G36*
X2450000Y2750000D02*
Y2569992D01*
X2442745Y2568549D01*
X2434476Y2563023D01*
X2428950Y2554754D01*
X2427010Y2544999D01*
Y2501478D01*
X2426716Y2499999D01*
X2427010Y2498521D01*
Y2455000D01*
X2422907Y2450000D01*
X2050001Y2449999D01*
X1799998Y2700000D01*
X1699999Y2800000D01*
X1250000D01*
X700000Y3350000D01*
X469999D01*
X449999Y3370000D01*
X449999Y3530000D01*
X469999Y3550000D01*
X1650000D01*
X2450000Y2750000D01*
D02*
G37*
G36*
X2850000Y2050009D02*
Y1300000D01*
X2750000Y1200000D01*
X2550000D01*
X2150000Y1600000D01*
X2150000Y2300000D01*
X2250000Y2400000D01*
X2500011D01*
X2850000Y2050009D01*
D02*
G37*
G36*
X1800000Y1150000D02*
X2700000D01*
X2850000Y1000000D01*
Y800000D01*
X2750000Y700000D01*
X1700000Y699999D01*
X1550000Y550000D01*
X800000Y550000D01*
X750000Y600000D01*
Y1300000D01*
X800000Y1350000D01*
X1600000D01*
X1800000Y1150000D01*
D02*
G37*
D11*
X4315000Y6140000D02*
D03*
X4145000D02*
D03*
D12*
X4663500Y300000D02*
D03*
X4536500D02*
D03*
X4790500D02*
D03*
X4409500D02*
D03*
D14*
X4605000Y120000D02*
D03*
X4435000D02*
D03*
D15*
X2920000Y5540000D02*
Y5900000D01*
X3290000Y6270000D01*
X1153998Y1466002D02*
X1160000Y1460000D01*
X1153998Y1466002D02*
Y2538000D01*
X4190000Y6270000D02*
X4300000Y6160000D01*
X3290000Y6270000D02*
X4190000D01*
X4315000Y6140000D02*
X4465000D01*
X4409500Y150500D02*
Y299999D01*
Y150500D02*
X4435000Y125000D01*
Y120000D02*
Y125000D01*
X4536500Y193500D02*
Y300000D01*
Y193500D02*
X4605000Y125000D01*
Y120000D02*
Y125000D01*
D16*
X2467500Y2499999D02*
X2467500Y2500000D01*
X2530000D01*
X4641353Y6090000D02*
X4710000D01*
X4630000Y6080000D02*
X4631353D01*
X4641353Y6090000D01*
X4710000D02*
X4735000Y6115000D01*
Y6140000D01*
X4590000Y448647D02*
X4643500Y395147D01*
Y320000D02*
X4663500Y300000D01*
X4643500Y320000D02*
Y395147D01*
X4590000Y448647D02*
Y450000D01*
D19*
X2680000Y1370000D02*
D03*
Y900000D02*
D03*
D20*
X2920000Y5540000D02*
D03*
X2530000Y3070000D02*
D03*
Y2570000D02*
D03*
Y3570000D02*
D03*
X499999Y3500000D02*
D03*
Y3400000D02*
D03*
X599999Y3500000D02*
D03*
Y3400000D02*
D03*
X699999D02*
D03*
Y3500000D02*
D03*
X1160000Y1460000D02*
D03*
X699999Y3200000D02*
D03*
Y3100000D02*
D03*
X60000Y3800000D02*
D03*
X2530000Y2500000D02*
D03*
X1070000Y1450000D02*
D03*
X1820000Y5740000D02*
D03*
X670000Y4890000D02*
D03*
X2480000D02*
D03*
X3150000Y5950000D02*
D03*
X3670000Y6050000D02*
D03*
X4010000D02*
D03*
X4560000D02*
D03*
X4160000Y6160000D02*
D03*
X4900000Y6070000D02*
D03*
X4860000Y6490000D02*
D03*
X4280000Y6510000D02*
D03*
X3480000Y6520000D02*
D03*
X2640000Y6510000D02*
D03*
X1740000D02*
D03*
X1140000Y6470000D02*
D03*
X570000Y5980000D02*
D03*
X140000Y5420000D02*
D03*
X90000Y4920000D02*
D03*
X1450000Y4390000D02*
D03*
X720000Y4470000D02*
D03*
X110000Y4430000D02*
D03*
X3100000Y5070000D02*
D03*
X3120000Y2810000D02*
D03*
X3110000Y3600000D02*
D03*
X3130000Y1830000D02*
D03*
X3140000Y1090000D02*
D03*
X3110000Y3800000D02*
D03*
X3120000Y80000D02*
D03*
X4020000Y70000D02*
D03*
X3160000Y340000D02*
D03*
X3950000Y330000D02*
D03*
X4930000Y100000D02*
D03*
X4900000Y520000D02*
D03*
X3160000Y630000D02*
D03*
X2390000Y100000D02*
D03*
X1160000Y140000D02*
D03*
X350000Y950000D02*
D03*
X90000Y1320000D02*
D03*
X100000Y2180000D02*
D03*
X1000000Y2200000D02*
D03*
X60000Y2740000D02*
D03*
Y3270000D02*
D03*
X599999Y3100000D02*
D03*
Y3200000D02*
D03*
X499999Y3100000D02*
D03*
Y3200000D02*
D03*
X1700000Y1740000D02*
D03*
X3040000Y5550000D02*
D03*
X4630000Y6080000D02*
D03*
X2820000Y5550000D02*
D03*
X4640000Y500000D02*
D03*
X1010000Y5780000D02*
D03*
X1390000Y5400000D02*
D03*
Y5980000D02*
D03*
X1190000D02*
D03*
X1290000Y5300000D02*
D03*
Y5880000D02*
D03*
X1390000Y5780000D02*
D03*
X1290000Y5680000D02*
D03*
X1190000Y5780000D02*
D03*
Y5600000D02*
D03*
X1390000D02*
D03*
X1290000Y5500000D02*
D03*
X1190000Y5400000D02*
D03*
X1100000Y5500000D02*
D03*
X1010000Y5600000D02*
D03*
X1100000Y5680000D02*
D03*
Y5880000D02*
D03*
X1010000Y5980000D02*
D03*
X910000Y5880000D02*
D03*
X810000Y5780000D02*
D03*
X910000Y5680000D02*
D03*
X810000Y5600000D02*
D03*
X910000Y5500000D02*
D03*
X810000Y5400000D02*
D03*
X910000Y5300000D02*
D03*
X1010000Y5400000D02*
D03*
X810000Y5980000D02*
D03*
X1100000Y5300000D02*
D03*
X4410000Y190000D02*
D03*
X4590000Y450000D02*
D03*
X4605000Y120000D02*
D03*
X4775000D02*
D03*
X4790500Y299999D02*
D03*
X4409500D02*
D03*
D21*
X1100000Y5638000D02*
D03*
Y962000D02*
D03*
D22*
X2402500Y2499999D02*
D03*
X2337500D02*
D03*
X2467500D02*
D03*
X2272500D02*
D03*
D23*
X2370000Y2309999D02*
D03*
D24*
X4735000Y6140000D02*
D03*
X4465000D02*
D03*
D25*
X1661998Y2538000D02*
D03*
X1407998D02*
D03*
X1153998D02*
D03*
X899998D02*
D03*
X645998D02*
D03*
X391998D02*
D03*
X137998D02*
D03*
Y4062000D02*
D03*
X391998D02*
D03*
X645998D02*
D03*
X899998D02*
D03*
X1153998D02*
D03*
X1407998D02*
D03*
X1661998D02*
D03*
%TF.MD5,4465350474e3371da4a8ba8c2a03e87c*%
M02*
