%TF.GenerationSoftware,Altium Limited,Altium Designer,24.10.1 (45)*%
G04 Layer_Color=8388736*
%FSLAX45Y45*%
%MOMM*%
%TF.SameCoordinates,5FB93C32-CF51-4A86-A7AC-1E4FFFE00694*%
%TF.FilePolarity,Negative*%
%TF.FileFunction,Soldermask,Top*%
%TF.Part,Single*%
G01*
G75*
%TA.AperFunction,SMDPad,CuDef*%
G04:AMPARAMS|DCode=32|XSize=3.1mm|YSize=2.1mm|CornerRadius=0.25mm|HoleSize=0mm|Usage=FLASHONLY|Rotation=180.000|XOffset=0mm|YOffset=0mm|HoleType=Round|Shape=RoundedRectangle|*
%AMROUNDEDRECTD32*
21,1,3.10000,1.60000,0,0,180.0*
21,1,2.60000,2.10000,0,0,180.0*
1,1,0.50000,-1.30000,0.80000*
1,1,0.50000,1.30000,0.80000*
1,1,0.50000,1.30000,-0.80000*
1,1,0.50000,-1.30000,-0.80000*
%
%ADD32ROUNDEDRECTD32*%
G04:AMPARAMS|DCode=33|XSize=1.1mm|YSize=1mm|CornerRadius=0.1625mm|HoleSize=0mm|Usage=FLASHONLY|Rotation=90.000|XOffset=0mm|YOffset=0mm|HoleType=Round|Shape=RoundedRectangle|*
%AMROUNDEDRECTD33*
21,1,1.10000,0.67500,0,0,90.0*
21,1,0.77500,1.00000,0,0,90.0*
1,1,0.32500,0.33750,0.38750*
1,1,0.32500,0.33750,-0.38750*
1,1,0.32500,-0.33750,-0.38750*
1,1,0.32500,-0.33750,0.38750*
%
%ADD33ROUNDEDRECTD33*%
G04:AMPARAMS|DCode=34|XSize=0.9mm|YSize=1.9mm|CornerRadius=0.09mm|HoleSize=0mm|Usage=FLASHONLY|Rotation=180.000|XOffset=0mm|YOffset=0mm|HoleType=Round|Shape=RoundedRectangle|*
%AMROUNDEDRECTD34*
21,1,0.90000,1.72000,0,0,180.0*
21,1,0.72000,1.90000,0,0,180.0*
1,1,0.18000,-0.36000,0.86000*
1,1,0.18000,0.36000,0.86000*
1,1,0.18000,0.36000,-0.86000*
1,1,0.18000,-0.36000,-0.86000*
%
%ADD34ROUNDEDRECTD34*%
G04:AMPARAMS|DCode=35|XSize=0.9mm|YSize=0.9mm|CornerRadius=0.15mm|HoleSize=0mm|Usage=FLASHONLY|Rotation=0.000|XOffset=0mm|YOffset=0mm|HoleType=Round|Shape=RoundedRectangle|*
%AMROUNDEDRECTD35*
21,1,0.90000,0.60000,0,0,0.0*
21,1,0.60000,0.90000,0,0,0.0*
1,1,0.30000,0.30000,-0.30000*
1,1,0.30000,-0.30000,-0.30000*
1,1,0.30000,-0.30000,0.30000*
1,1,0.30000,0.30000,0.30000*
%
%ADD35ROUNDEDRECTD35*%
%TA.AperFunction,ConnectorPad*%
G04:AMPARAMS|DCode=36|XSize=1.1mm|YSize=1mm|CornerRadius=0.1625mm|HoleSize=0mm|Usage=FLASHONLY|Rotation=90.000|XOffset=0mm|YOffset=0mm|HoleType=Round|Shape=RoundedRectangle|*
%AMROUNDEDRECTD36*
21,1,1.10000,0.67500,0,0,90.0*
21,1,0.77500,1.00000,0,0,90.0*
1,1,0.32500,0.33750,0.38750*
1,1,0.32500,0.33750,-0.38750*
1,1,0.32500,-0.33750,-0.38750*
1,1,0.32500,-0.33750,0.38750*
%
%ADD36ROUNDEDRECTD36*%
%TA.AperFunction,ComponentPad*%
%ADD37C,3.30000*%
%TA.AperFunction,WasherPad*%
%ADD38C,0.10000*%
%TA.AperFunction,ComponentPad*%
%ADD39C,0.10000*%
G36*
X1742978Y4266928D02*
X1743921Y4266642D01*
X1744789Y4266177D01*
X1745551Y4265553D01*
X1746176Y4264791D01*
X1746640Y4263923D01*
X1746926Y4262980D01*
X1747022Y4262000D01*
Y4062000D01*
Y4056757D01*
X1746990Y4056431D01*
X1746979Y4056101D01*
X1745610Y4045704D01*
X1745536Y4045384D01*
X1745482Y4045059D01*
X1742768Y4034929D01*
X1742651Y4034620D01*
X1742557Y4034307D01*
X1738544Y4024619D01*
X1738388Y4024327D01*
X1738253Y4024029D01*
X1733009Y4014947D01*
X1732817Y4014678D01*
X1732644Y4014401D01*
X1726260Y4006081D01*
X1726037Y4005843D01*
X1725827Y4005587D01*
X1718412Y3998171D01*
X1718155Y3997961D01*
X1717917Y3997738D01*
X1709598Y3991354D01*
X1709318Y3991180D01*
X1709051Y3990989D01*
X1699969Y3985745D01*
X1699668Y3985609D01*
X1699380Y3985455D01*
X1689691Y3981442D01*
X1689377Y3981346D01*
X1689069Y3981230D01*
X1678939Y3978516D01*
X1678615Y3978462D01*
X1678295Y3978388D01*
X1667898Y3977019D01*
X1667568Y3977008D01*
X1667242Y3976976D01*
X1656755D01*
X1656429Y3977008D01*
X1656099Y3977019D01*
X1645702Y3978388D01*
X1645382Y3978462D01*
X1645057Y3978516D01*
X1634927Y3981230D01*
X1634618Y3981347D01*
X1634305Y3981442D01*
X1624617Y3985454D01*
X1624325Y3985610D01*
X1624027Y3985745D01*
X1614945Y3990989D01*
X1614676Y3991181D01*
X1614399Y3991354D01*
X1606079Y3997738D01*
X1605841Y3997961D01*
X1605585Y3998171D01*
X1598169Y4005587D01*
X1597959Y4005843D01*
X1597736Y4006081D01*
X1591352Y4014401D01*
X1591178Y4014680D01*
X1590987Y4014947D01*
X1585743Y4024029D01*
X1585607Y4024330D01*
X1585453Y4024619D01*
X1581440Y4034307D01*
X1581344Y4034622D01*
X1581228Y4034929D01*
X1578514Y4045059D01*
X1578461Y4045383D01*
X1578386Y4045704D01*
X1577017Y4056101D01*
X1577006Y4056431D01*
X1576974Y4056757D01*
Y4062000D01*
Y4262000D01*
X1577071Y4262980D01*
X1577357Y4263923D01*
X1577821Y4264791D01*
X1578445Y4265553D01*
X1579207Y4266177D01*
X1580076Y4266642D01*
X1581018Y4266928D01*
X1581998Y4267024D01*
X1741998D01*
X1742978Y4266928D01*
D02*
G37*
G36*
X1488978D02*
X1489921Y4266642D01*
X1490789Y4266177D01*
X1491551Y4265553D01*
X1492176Y4264791D01*
X1492640Y4263923D01*
X1492926Y4262980D01*
X1493022Y4262000D01*
Y4062000D01*
Y4056757D01*
X1492990Y4056431D01*
X1492979Y4056101D01*
X1491610Y4045704D01*
X1491536Y4045384D01*
X1491482Y4045059D01*
X1488768Y4034929D01*
X1488651Y4034620D01*
X1488557Y4034307D01*
X1484544Y4024619D01*
X1484388Y4024327D01*
X1484253Y4024029D01*
X1479009Y4014947D01*
X1478817Y4014678D01*
X1478644Y4014401D01*
X1472260Y4006081D01*
X1472037Y4005843D01*
X1471827Y4005587D01*
X1464412Y3998171D01*
X1464155Y3997961D01*
X1463917Y3997738D01*
X1455598Y3991354D01*
X1455318Y3991180D01*
X1455051Y3990989D01*
X1445969Y3985745D01*
X1445668Y3985609D01*
X1445380Y3985455D01*
X1435691Y3981442D01*
X1435377Y3981346D01*
X1435069Y3981230D01*
X1424939Y3978516D01*
X1424615Y3978462D01*
X1424295Y3978388D01*
X1413898Y3977019D01*
X1413568Y3977008D01*
X1413242Y3976976D01*
X1402755D01*
X1402429Y3977008D01*
X1402099Y3977019D01*
X1391702Y3978388D01*
X1391382Y3978462D01*
X1391057Y3978516D01*
X1380927Y3981230D01*
X1380618Y3981347D01*
X1380305Y3981442D01*
X1370617Y3985454D01*
X1370325Y3985610D01*
X1370027Y3985745D01*
X1360945Y3990989D01*
X1360676Y3991181D01*
X1360399Y3991354D01*
X1352079Y3997738D01*
X1351841Y3997961D01*
X1351585Y3998171D01*
X1344169Y4005587D01*
X1343959Y4005843D01*
X1343736Y4006081D01*
X1337352Y4014401D01*
X1337178Y4014680D01*
X1336987Y4014947D01*
X1331743Y4024029D01*
X1331607Y4024330D01*
X1331453Y4024619D01*
X1327440Y4034307D01*
X1327344Y4034622D01*
X1327228Y4034929D01*
X1324514Y4045059D01*
X1324461Y4045383D01*
X1324386Y4045704D01*
X1323017Y4056101D01*
X1323006Y4056431D01*
X1322974Y4056757D01*
Y4062000D01*
Y4262000D01*
X1323071Y4262980D01*
X1323357Y4263923D01*
X1323821Y4264791D01*
X1324445Y4265553D01*
X1325207Y4266177D01*
X1326076Y4266642D01*
X1327018Y4266928D01*
X1327998Y4267024D01*
X1487998D01*
X1488978Y4266928D01*
D02*
G37*
G36*
X1234978D02*
X1235921Y4266642D01*
X1236789Y4266177D01*
X1237551Y4265553D01*
X1238176Y4264791D01*
X1238640Y4263923D01*
X1238926Y4262980D01*
X1239022Y4262000D01*
Y4062000D01*
Y4056757D01*
X1238990Y4056431D01*
X1238979Y4056101D01*
X1237610Y4045704D01*
X1237536Y4045384D01*
X1237482Y4045059D01*
X1234768Y4034929D01*
X1234651Y4034620D01*
X1234557Y4034307D01*
X1230544Y4024619D01*
X1230388Y4024327D01*
X1230253Y4024029D01*
X1225009Y4014947D01*
X1224817Y4014678D01*
X1224644Y4014401D01*
X1218260Y4006081D01*
X1218037Y4005843D01*
X1217827Y4005587D01*
X1210412Y3998171D01*
X1210155Y3997961D01*
X1209917Y3997738D01*
X1201598Y3991354D01*
X1201318Y3991180D01*
X1201051Y3990989D01*
X1191969Y3985745D01*
X1191668Y3985609D01*
X1191380Y3985455D01*
X1181691Y3981442D01*
X1181377Y3981346D01*
X1181069Y3981230D01*
X1170939Y3978516D01*
X1170615Y3978462D01*
X1170295Y3978388D01*
X1159898Y3977019D01*
X1159568Y3977008D01*
X1159242Y3976976D01*
X1148755D01*
X1148429Y3977008D01*
X1148099Y3977019D01*
X1137702Y3978388D01*
X1137382Y3978462D01*
X1137057Y3978516D01*
X1126927Y3981230D01*
X1126618Y3981347D01*
X1126305Y3981442D01*
X1116617Y3985454D01*
X1116325Y3985610D01*
X1116027Y3985745D01*
X1106945Y3990989D01*
X1106676Y3991181D01*
X1106399Y3991354D01*
X1098079Y3997738D01*
X1097841Y3997961D01*
X1097585Y3998171D01*
X1090169Y4005587D01*
X1089959Y4005843D01*
X1089736Y4006081D01*
X1083352Y4014401D01*
X1083178Y4014680D01*
X1082987Y4014947D01*
X1077743Y4024029D01*
X1077607Y4024330D01*
X1077453Y4024619D01*
X1073440Y4034307D01*
X1073344Y4034622D01*
X1073228Y4034929D01*
X1070514Y4045059D01*
X1070461Y4045383D01*
X1070386Y4045704D01*
X1069017Y4056101D01*
X1069006Y4056431D01*
X1068974Y4056757D01*
Y4062000D01*
Y4262000D01*
X1069071Y4262980D01*
X1069357Y4263923D01*
X1069821Y4264791D01*
X1070445Y4265553D01*
X1071207Y4266177D01*
X1072076Y4266642D01*
X1073018Y4266928D01*
X1073998Y4267024D01*
X1233998D01*
X1234978Y4266928D01*
D02*
G37*
G36*
X980978D02*
X981921Y4266642D01*
X982789Y4266177D01*
X983551Y4265553D01*
X984176Y4264791D01*
X984640Y4263923D01*
X984926Y4262980D01*
X985022Y4262000D01*
Y4062000D01*
Y4056757D01*
X984990Y4056431D01*
X984979Y4056101D01*
X983610Y4045704D01*
X983536Y4045384D01*
X983482Y4045059D01*
X980768Y4034929D01*
X980651Y4034620D01*
X980557Y4034307D01*
X976544Y4024619D01*
X976388Y4024327D01*
X976253Y4024029D01*
X971009Y4014947D01*
X970817Y4014678D01*
X970644Y4014401D01*
X964260Y4006081D01*
X964037Y4005843D01*
X963827Y4005587D01*
X956412Y3998171D01*
X956155Y3997961D01*
X955917Y3997738D01*
X947598Y3991354D01*
X947318Y3991180D01*
X947051Y3990989D01*
X937969Y3985745D01*
X937668Y3985609D01*
X937380Y3985455D01*
X927691Y3981442D01*
X927377Y3981346D01*
X927069Y3981230D01*
X916939Y3978516D01*
X916615Y3978462D01*
X916295Y3978388D01*
X905898Y3977019D01*
X905568Y3977008D01*
X905242Y3976976D01*
X894755D01*
X894429Y3977008D01*
X894099Y3977019D01*
X883702Y3978388D01*
X883382Y3978462D01*
X883057Y3978516D01*
X872927Y3981230D01*
X872618Y3981347D01*
X872305Y3981442D01*
X862617Y3985454D01*
X862325Y3985610D01*
X862027Y3985745D01*
X852945Y3990989D01*
X852676Y3991181D01*
X852399Y3991354D01*
X844079Y3997738D01*
X843841Y3997961D01*
X843585Y3998171D01*
X836169Y4005587D01*
X835959Y4005843D01*
X835736Y4006081D01*
X829352Y4014401D01*
X829178Y4014680D01*
X828987Y4014947D01*
X823743Y4024029D01*
X823607Y4024330D01*
X823453Y4024619D01*
X819440Y4034307D01*
X819344Y4034622D01*
X819228Y4034929D01*
X816514Y4045059D01*
X816461Y4045383D01*
X816386Y4045704D01*
X815017Y4056101D01*
X815006Y4056431D01*
X814974Y4056757D01*
Y4062000D01*
Y4262000D01*
X815071Y4262980D01*
X815357Y4263923D01*
X815821Y4264791D01*
X816445Y4265553D01*
X817207Y4266177D01*
X818076Y4266642D01*
X819018Y4266928D01*
X819998Y4267024D01*
X979998D01*
X980978Y4266928D01*
D02*
G37*
G36*
X726978D02*
X727921Y4266642D01*
X728789Y4266177D01*
X729551Y4265553D01*
X730176Y4264791D01*
X730640Y4263923D01*
X730926Y4262980D01*
X731022Y4262000D01*
Y4062000D01*
Y4056757D01*
X730990Y4056431D01*
X730979Y4056101D01*
X729610Y4045704D01*
X729536Y4045384D01*
X729482Y4045059D01*
X726768Y4034929D01*
X726651Y4034620D01*
X726557Y4034307D01*
X722544Y4024619D01*
X722388Y4024327D01*
X722253Y4024029D01*
X717009Y4014947D01*
X716817Y4014678D01*
X716644Y4014401D01*
X710260Y4006081D01*
X710037Y4005843D01*
X709827Y4005587D01*
X702412Y3998171D01*
X702155Y3997961D01*
X701917Y3997738D01*
X693598Y3991354D01*
X693318Y3991180D01*
X693051Y3990989D01*
X683969Y3985745D01*
X683668Y3985609D01*
X683380Y3985455D01*
X673691Y3981442D01*
X673377Y3981346D01*
X673069Y3981230D01*
X662939Y3978516D01*
X662615Y3978462D01*
X662295Y3978388D01*
X651898Y3977019D01*
X651568Y3977008D01*
X651242Y3976976D01*
X640755D01*
X640429Y3977008D01*
X640099Y3977019D01*
X629702Y3978388D01*
X629382Y3978462D01*
X629057Y3978516D01*
X618927Y3981230D01*
X618618Y3981347D01*
X618305Y3981442D01*
X608617Y3985454D01*
X608325Y3985610D01*
X608027Y3985745D01*
X598945Y3990989D01*
X598676Y3991181D01*
X598399Y3991354D01*
X590079Y3997738D01*
X589841Y3997961D01*
X589585Y3998171D01*
X582169Y4005587D01*
X581959Y4005843D01*
X581736Y4006081D01*
X575352Y4014401D01*
X575178Y4014680D01*
X574987Y4014947D01*
X569743Y4024029D01*
X569607Y4024330D01*
X569453Y4024619D01*
X565440Y4034307D01*
X565344Y4034622D01*
X565228Y4034929D01*
X562514Y4045059D01*
X562461Y4045383D01*
X562386Y4045704D01*
X561017Y4056101D01*
X561006Y4056431D01*
X560974Y4056757D01*
Y4062000D01*
Y4262000D01*
X561071Y4262980D01*
X561357Y4263923D01*
X561821Y4264791D01*
X562445Y4265553D01*
X563207Y4266177D01*
X564076Y4266642D01*
X565018Y4266928D01*
X565998Y4267024D01*
X725998D01*
X726978Y4266928D01*
D02*
G37*
G36*
X472978D02*
X473921Y4266642D01*
X474789Y4266177D01*
X475551Y4265553D01*
X476176Y4264791D01*
X476640Y4263923D01*
X476926Y4262980D01*
X477022Y4262000D01*
Y4062000D01*
Y4056757D01*
X476990Y4056431D01*
X476979Y4056101D01*
X475610Y4045704D01*
X475536Y4045384D01*
X475482Y4045059D01*
X472768Y4034929D01*
X472651Y4034620D01*
X472557Y4034307D01*
X468544Y4024619D01*
X468388Y4024327D01*
X468253Y4024029D01*
X463009Y4014947D01*
X462817Y4014678D01*
X462644Y4014401D01*
X456260Y4006081D01*
X456037Y4005843D01*
X455827Y4005587D01*
X448412Y3998171D01*
X448155Y3997961D01*
X447917Y3997738D01*
X439598Y3991354D01*
X439318Y3991180D01*
X439051Y3990989D01*
X429969Y3985745D01*
X429668Y3985609D01*
X429380Y3985455D01*
X419691Y3981442D01*
X419377Y3981346D01*
X419069Y3981230D01*
X408939Y3978516D01*
X408615Y3978462D01*
X408295Y3978388D01*
X397898Y3977019D01*
X397568Y3977008D01*
X397242Y3976976D01*
X386755D01*
X386429Y3977008D01*
X386099Y3977019D01*
X375702Y3978388D01*
X375382Y3978462D01*
X375057Y3978516D01*
X364927Y3981230D01*
X364618Y3981347D01*
X364305Y3981442D01*
X354617Y3985454D01*
X354325Y3985610D01*
X354027Y3985745D01*
X344945Y3990989D01*
X344676Y3991181D01*
X344399Y3991354D01*
X336079Y3997738D01*
X335841Y3997961D01*
X335585Y3998171D01*
X328169Y4005587D01*
X327959Y4005843D01*
X327736Y4006081D01*
X321352Y4014401D01*
X321178Y4014680D01*
X320987Y4014947D01*
X315743Y4024029D01*
X315607Y4024330D01*
X315453Y4024619D01*
X311440Y4034307D01*
X311344Y4034622D01*
X311228Y4034929D01*
X308514Y4045059D01*
X308461Y4045383D01*
X308386Y4045704D01*
X307017Y4056101D01*
X307006Y4056431D01*
X306974Y4056757D01*
Y4062000D01*
Y4262000D01*
X307071Y4262980D01*
X307357Y4263923D01*
X307821Y4264791D01*
X308445Y4265553D01*
X309207Y4266177D01*
X310076Y4266642D01*
X311018Y4266928D01*
X311998Y4267024D01*
X471998D01*
X472978Y4266928D01*
D02*
G37*
G36*
X218978D02*
X219921Y4266642D01*
X220790Y4266177D01*
X221551Y4265553D01*
X222176Y4264791D01*
X222640Y4263923D01*
X222926Y4262980D01*
X223022Y4262000D01*
Y4062000D01*
Y4056757D01*
X222990Y4056431D01*
X222979Y4056101D01*
X221610Y4045704D01*
X221536Y4045384D01*
X221482Y4045059D01*
X218768Y4034929D01*
X218651Y4034620D01*
X218557Y4034307D01*
X214544Y4024619D01*
X214388Y4024327D01*
X214253Y4024029D01*
X209009Y4014947D01*
X208817Y4014678D01*
X208644Y4014401D01*
X202260Y4006081D01*
X202037Y4005843D01*
X201827Y4005587D01*
X194412Y3998171D01*
X194155Y3997961D01*
X193917Y3997738D01*
X185598Y3991354D01*
X185318Y3991180D01*
X185051Y3990989D01*
X175969Y3985745D01*
X175668Y3985609D01*
X175380Y3985455D01*
X165691Y3981442D01*
X165377Y3981346D01*
X165069Y3981230D01*
X154939Y3978516D01*
X154615Y3978462D01*
X154295Y3978388D01*
X143898Y3977019D01*
X143568Y3977008D01*
X143242Y3976976D01*
X132755D01*
X132429Y3977008D01*
X132099Y3977019D01*
X121702Y3978388D01*
X121382Y3978462D01*
X121057Y3978516D01*
X110927Y3981230D01*
X110618Y3981347D01*
X110305Y3981442D01*
X100617Y3985454D01*
X100325Y3985610D01*
X100027Y3985745D01*
X90945Y3990989D01*
X90676Y3991181D01*
X90399Y3991354D01*
X82079Y3997738D01*
X81841Y3997961D01*
X81585Y3998171D01*
X74169Y4005587D01*
X73959Y4005843D01*
X73736Y4006081D01*
X67352Y4014401D01*
X67178Y4014680D01*
X66987Y4014947D01*
X61743Y4024029D01*
X61607Y4024330D01*
X61453Y4024619D01*
X57440Y4034307D01*
X57344Y4034622D01*
X57228Y4034929D01*
X54514Y4045059D01*
X54461Y4045383D01*
X54386Y4045704D01*
X53017Y4056101D01*
X53006Y4056431D01*
X52974Y4056757D01*
Y4062000D01*
Y4262000D01*
X53071Y4262980D01*
X53357Y4263923D01*
X53821Y4264791D01*
X54445Y4265553D01*
X55207Y4266177D01*
X56076Y4266642D01*
X57018Y4266928D01*
X57998Y4267024D01*
X217998D01*
X218978Y4266928D01*
D02*
G37*
G36*
X1667568Y2622992D02*
X1667897Y2622981D01*
X1678295Y2621612D01*
X1678615Y2621538D01*
X1678939Y2621484D01*
X1689069Y2618770D01*
X1689378Y2618653D01*
X1689691Y2618558D01*
X1699380Y2614546D01*
X1699671Y2614390D01*
X1699969Y2614255D01*
X1709051Y2609011D01*
X1709320Y2608819D01*
X1709598Y2608646D01*
X1717917Y2602262D01*
X1718155Y2602039D01*
X1718412Y2601829D01*
X1725827Y2594413D01*
X1726037Y2594157D01*
X1726260Y2593919D01*
X1732644Y2585599D01*
X1732818Y2585320D01*
X1733009Y2585053D01*
X1738253Y2575971D01*
X1738389Y2575670D01*
X1738544Y2575381D01*
X1742557Y2565693D01*
X1742652Y2565378D01*
X1742768Y2565071D01*
X1745482Y2554941D01*
X1745536Y2554617D01*
X1745610Y2554296D01*
X1746979Y2543899D01*
X1746990Y2543569D01*
X1747022Y2543243D01*
Y2538000D01*
Y2338000D01*
X1746926Y2337020D01*
X1746640Y2336077D01*
X1746176Y2335209D01*
X1745551Y2334447D01*
X1744789Y2333823D01*
X1743921Y2333358D01*
X1742978Y2333072D01*
X1741998Y2332976D01*
X1581998D01*
X1581018Y2333072D01*
X1580076Y2333358D01*
X1579207Y2333823D01*
X1578445Y2334447D01*
X1577821Y2335209D01*
X1577357Y2336077D01*
X1577071Y2337020D01*
X1576974Y2338000D01*
Y2538000D01*
Y2543243D01*
X1577006Y2543569D01*
X1577017Y2543899D01*
X1578386Y2554296D01*
X1578461Y2554616D01*
X1578514Y2554941D01*
X1581228Y2565071D01*
X1581345Y2565380D01*
X1581440Y2565693D01*
X1585453Y2575381D01*
X1585608Y2575673D01*
X1585743Y2575971D01*
X1590987Y2585053D01*
X1591179Y2585322D01*
X1591352Y2585599D01*
X1597736Y2593919D01*
X1597959Y2594157D01*
X1598169Y2594413D01*
X1605585Y2601829D01*
X1605841Y2602039D01*
X1606079Y2602262D01*
X1614399Y2608646D01*
X1614678Y2608820D01*
X1614945Y2609011D01*
X1624027Y2614255D01*
X1624328Y2614391D01*
X1624617Y2614545D01*
X1634305Y2618558D01*
X1634620Y2618654D01*
X1634928Y2618770D01*
X1645057Y2621484D01*
X1645381Y2621538D01*
X1645702Y2621612D01*
X1656099Y2622981D01*
X1656429Y2622992D01*
X1656755Y2623024D01*
X1667242D01*
X1667568Y2622992D01*
D02*
G37*
G36*
X1413568D02*
X1413897Y2622981D01*
X1424295Y2621612D01*
X1424615Y2621538D01*
X1424939Y2621484D01*
X1435069Y2618770D01*
X1435378Y2618653D01*
X1435691Y2618558D01*
X1445380Y2614546D01*
X1445671Y2614390D01*
X1445969Y2614255D01*
X1455051Y2609011D01*
X1455320Y2608819D01*
X1455598Y2608646D01*
X1463917Y2602262D01*
X1464155Y2602039D01*
X1464412Y2601829D01*
X1471827Y2594413D01*
X1472037Y2594157D01*
X1472260Y2593919D01*
X1478644Y2585599D01*
X1478818Y2585320D01*
X1479009Y2585053D01*
X1484253Y2575971D01*
X1484389Y2575670D01*
X1484544Y2575381D01*
X1488557Y2565693D01*
X1488652Y2565378D01*
X1488768Y2565071D01*
X1491482Y2554941D01*
X1491536Y2554617D01*
X1491610Y2554296D01*
X1492979Y2543899D01*
X1492990Y2543569D01*
X1493022Y2543243D01*
Y2538000D01*
Y2338000D01*
X1492926Y2337020D01*
X1492640Y2336077D01*
X1492176Y2335209D01*
X1491551Y2334447D01*
X1490789Y2333823D01*
X1489921Y2333358D01*
X1488978Y2333072D01*
X1487998Y2332976D01*
X1327998D01*
X1327018Y2333072D01*
X1326076Y2333358D01*
X1325207Y2333823D01*
X1324445Y2334447D01*
X1323821Y2335209D01*
X1323357Y2336077D01*
X1323071Y2337020D01*
X1322974Y2338000D01*
Y2538000D01*
Y2543243D01*
X1323006Y2543569D01*
X1323017Y2543899D01*
X1324386Y2554296D01*
X1324461Y2554616D01*
X1324514Y2554941D01*
X1327228Y2565071D01*
X1327345Y2565380D01*
X1327440Y2565693D01*
X1331453Y2575381D01*
X1331608Y2575673D01*
X1331743Y2575971D01*
X1336987Y2585053D01*
X1337179Y2585322D01*
X1337352Y2585599D01*
X1343736Y2593919D01*
X1343959Y2594157D01*
X1344169Y2594413D01*
X1351585Y2601829D01*
X1351841Y2602039D01*
X1352079Y2602262D01*
X1360399Y2608646D01*
X1360678Y2608820D01*
X1360945Y2609011D01*
X1370027Y2614255D01*
X1370328Y2614391D01*
X1370617Y2614545D01*
X1380305Y2618558D01*
X1380620Y2618654D01*
X1380928Y2618770D01*
X1391057Y2621484D01*
X1391381Y2621538D01*
X1391702Y2621612D01*
X1402099Y2622981D01*
X1402429Y2622992D01*
X1402755Y2623024D01*
X1413242D01*
X1413568Y2622992D01*
D02*
G37*
G36*
X1159568D02*
X1159897Y2622981D01*
X1170295Y2621612D01*
X1170615Y2621538D01*
X1170939Y2621484D01*
X1181069Y2618770D01*
X1181378Y2618653D01*
X1181691Y2618558D01*
X1191380Y2614546D01*
X1191671Y2614390D01*
X1191969Y2614255D01*
X1201051Y2609011D01*
X1201320Y2608819D01*
X1201598Y2608646D01*
X1209917Y2602262D01*
X1210155Y2602039D01*
X1210412Y2601829D01*
X1217827Y2594413D01*
X1218037Y2594157D01*
X1218260Y2593919D01*
X1224644Y2585599D01*
X1224818Y2585320D01*
X1225009Y2585053D01*
X1230253Y2575971D01*
X1230389Y2575670D01*
X1230544Y2575381D01*
X1234557Y2565693D01*
X1234652Y2565378D01*
X1234768Y2565071D01*
X1237482Y2554941D01*
X1237536Y2554617D01*
X1237610Y2554296D01*
X1238979Y2543899D01*
X1238990Y2543569D01*
X1239022Y2543243D01*
Y2538000D01*
Y2338000D01*
X1238926Y2337020D01*
X1238640Y2336077D01*
X1238176Y2335209D01*
X1237551Y2334447D01*
X1236789Y2333823D01*
X1235921Y2333358D01*
X1234978Y2333072D01*
X1233998Y2332976D01*
X1073998D01*
X1073018Y2333072D01*
X1072076Y2333358D01*
X1071207Y2333823D01*
X1070445Y2334447D01*
X1069821Y2335209D01*
X1069357Y2336077D01*
X1069071Y2337020D01*
X1068974Y2338000D01*
Y2538000D01*
Y2543243D01*
X1069006Y2543569D01*
X1069017Y2543899D01*
X1070386Y2554296D01*
X1070461Y2554616D01*
X1070514Y2554941D01*
X1073228Y2565071D01*
X1073345Y2565380D01*
X1073440Y2565693D01*
X1077453Y2575381D01*
X1077608Y2575673D01*
X1077743Y2575971D01*
X1082987Y2585053D01*
X1083179Y2585322D01*
X1083352Y2585599D01*
X1089736Y2593919D01*
X1089959Y2594157D01*
X1090169Y2594413D01*
X1097585Y2601829D01*
X1097841Y2602039D01*
X1098079Y2602262D01*
X1106399Y2608646D01*
X1106678Y2608820D01*
X1106945Y2609011D01*
X1116027Y2614255D01*
X1116328Y2614391D01*
X1116617Y2614545D01*
X1126305Y2618558D01*
X1126620Y2618654D01*
X1126928Y2618770D01*
X1137057Y2621484D01*
X1137381Y2621538D01*
X1137702Y2621612D01*
X1148099Y2622981D01*
X1148429Y2622992D01*
X1148755Y2623024D01*
X1159242D01*
X1159568Y2622992D01*
D02*
G37*
G36*
X905568D02*
X905897Y2622981D01*
X916295Y2621612D01*
X916615Y2621538D01*
X916939Y2621484D01*
X927069Y2618770D01*
X927378Y2618653D01*
X927691Y2618558D01*
X937380Y2614546D01*
X937671Y2614390D01*
X937969Y2614255D01*
X947051Y2609011D01*
X947320Y2608819D01*
X947598Y2608646D01*
X955917Y2602262D01*
X956155Y2602039D01*
X956412Y2601829D01*
X963827Y2594413D01*
X964037Y2594157D01*
X964260Y2593919D01*
X970644Y2585599D01*
X970818Y2585320D01*
X971009Y2585053D01*
X976253Y2575971D01*
X976389Y2575670D01*
X976544Y2575381D01*
X980557Y2565693D01*
X980652Y2565378D01*
X980768Y2565071D01*
X983482Y2554941D01*
X983536Y2554617D01*
X983610Y2554296D01*
X984979Y2543899D01*
X984990Y2543569D01*
X985022Y2543243D01*
Y2538000D01*
Y2338000D01*
X984926Y2337020D01*
X984640Y2336077D01*
X984176Y2335209D01*
X983551Y2334447D01*
X982789Y2333823D01*
X981921Y2333358D01*
X980978Y2333072D01*
X979998Y2332976D01*
X819998D01*
X819018Y2333072D01*
X818076Y2333358D01*
X817207Y2333823D01*
X816445Y2334447D01*
X815821Y2335209D01*
X815357Y2336077D01*
X815071Y2337020D01*
X814974Y2338000D01*
Y2538000D01*
Y2543243D01*
X815006Y2543569D01*
X815017Y2543899D01*
X816386Y2554296D01*
X816461Y2554616D01*
X816514Y2554941D01*
X819228Y2565071D01*
X819345Y2565380D01*
X819440Y2565693D01*
X823453Y2575381D01*
X823608Y2575673D01*
X823743Y2575971D01*
X828987Y2585053D01*
X829179Y2585322D01*
X829352Y2585599D01*
X835736Y2593919D01*
X835959Y2594157D01*
X836169Y2594413D01*
X843585Y2601829D01*
X843841Y2602039D01*
X844079Y2602262D01*
X852399Y2608646D01*
X852678Y2608820D01*
X852945Y2609011D01*
X862027Y2614255D01*
X862328Y2614391D01*
X862617Y2614545D01*
X872305Y2618558D01*
X872620Y2618654D01*
X872928Y2618770D01*
X883057Y2621484D01*
X883381Y2621538D01*
X883702Y2621612D01*
X894099Y2622981D01*
X894429Y2622992D01*
X894755Y2623024D01*
X905242D01*
X905568Y2622992D01*
D02*
G37*
G36*
X651568D02*
X651897Y2622981D01*
X662295Y2621612D01*
X662615Y2621538D01*
X662939Y2621484D01*
X673069Y2618770D01*
X673378Y2618653D01*
X673691Y2618558D01*
X683380Y2614546D01*
X683671Y2614390D01*
X683969Y2614255D01*
X693051Y2609011D01*
X693320Y2608819D01*
X693598Y2608646D01*
X701917Y2602262D01*
X702155Y2602039D01*
X702412Y2601829D01*
X709827Y2594413D01*
X710037Y2594157D01*
X710260Y2593919D01*
X716644Y2585599D01*
X716818Y2585320D01*
X717009Y2585053D01*
X722253Y2575971D01*
X722389Y2575670D01*
X722544Y2575381D01*
X726557Y2565693D01*
X726652Y2565378D01*
X726768Y2565071D01*
X729482Y2554941D01*
X729536Y2554617D01*
X729610Y2554296D01*
X730979Y2543899D01*
X730990Y2543569D01*
X731022Y2543243D01*
Y2538000D01*
Y2338000D01*
X730926Y2337020D01*
X730640Y2336077D01*
X730176Y2335209D01*
X729551Y2334447D01*
X728789Y2333823D01*
X727921Y2333358D01*
X726978Y2333072D01*
X725998Y2332976D01*
X565998D01*
X565018Y2333072D01*
X564076Y2333358D01*
X563207Y2333823D01*
X562445Y2334447D01*
X561821Y2335209D01*
X561357Y2336077D01*
X561071Y2337020D01*
X560974Y2338000D01*
Y2538000D01*
Y2543243D01*
X561006Y2543569D01*
X561017Y2543899D01*
X562386Y2554296D01*
X562461Y2554616D01*
X562514Y2554941D01*
X565228Y2565071D01*
X565345Y2565380D01*
X565440Y2565693D01*
X569453Y2575381D01*
X569608Y2575673D01*
X569743Y2575971D01*
X574987Y2585053D01*
X575179Y2585322D01*
X575352Y2585599D01*
X581736Y2593919D01*
X581959Y2594157D01*
X582169Y2594413D01*
X589585Y2601829D01*
X589841Y2602039D01*
X590079Y2602262D01*
X598399Y2608646D01*
X598678Y2608820D01*
X598945Y2609011D01*
X608027Y2614255D01*
X608328Y2614391D01*
X608617Y2614545D01*
X618305Y2618558D01*
X618620Y2618654D01*
X618928Y2618770D01*
X629057Y2621484D01*
X629381Y2621538D01*
X629702Y2621612D01*
X640099Y2622981D01*
X640429Y2622992D01*
X640755Y2623024D01*
X651242D01*
X651568Y2622992D01*
D02*
G37*
G36*
X397568D02*
X397897Y2622981D01*
X408295Y2621612D01*
X408615Y2621538D01*
X408939Y2621484D01*
X419069Y2618770D01*
X419378Y2618653D01*
X419691Y2618558D01*
X429380Y2614546D01*
X429671Y2614390D01*
X429969Y2614255D01*
X439051Y2609011D01*
X439320Y2608819D01*
X439598Y2608646D01*
X447917Y2602262D01*
X448155Y2602039D01*
X448412Y2601829D01*
X455827Y2594413D01*
X456037Y2594157D01*
X456260Y2593919D01*
X462644Y2585599D01*
X462818Y2585320D01*
X463009Y2585053D01*
X468253Y2575971D01*
X468389Y2575670D01*
X468544Y2575381D01*
X472557Y2565693D01*
X472652Y2565378D01*
X472768Y2565071D01*
X475482Y2554941D01*
X475536Y2554617D01*
X475610Y2554296D01*
X476979Y2543899D01*
X476990Y2543569D01*
X477022Y2543243D01*
Y2538000D01*
Y2338000D01*
X476926Y2337020D01*
X476640Y2336077D01*
X476176Y2335209D01*
X475551Y2334447D01*
X474789Y2333823D01*
X473921Y2333358D01*
X472978Y2333072D01*
X471998Y2332976D01*
X311998D01*
X311018Y2333072D01*
X310076Y2333358D01*
X309207Y2333823D01*
X308445Y2334447D01*
X307821Y2335209D01*
X307357Y2336077D01*
X307071Y2337020D01*
X306974Y2338000D01*
Y2538000D01*
Y2543243D01*
X307006Y2543569D01*
X307017Y2543899D01*
X308386Y2554296D01*
X308461Y2554616D01*
X308514Y2554941D01*
X311228Y2565071D01*
X311345Y2565380D01*
X311440Y2565693D01*
X315453Y2575381D01*
X315608Y2575673D01*
X315743Y2575971D01*
X320987Y2585053D01*
X321179Y2585322D01*
X321352Y2585599D01*
X327736Y2593919D01*
X327959Y2594157D01*
X328169Y2594413D01*
X335585Y2601829D01*
X335841Y2602039D01*
X336079Y2602262D01*
X344399Y2608646D01*
X344678Y2608820D01*
X344945Y2609011D01*
X354027Y2614255D01*
X354328Y2614391D01*
X354617Y2614545D01*
X364305Y2618558D01*
X364620Y2618654D01*
X364928Y2618770D01*
X375057Y2621484D01*
X375381Y2621538D01*
X375702Y2621612D01*
X386099Y2622981D01*
X386429Y2622992D01*
X386755Y2623024D01*
X397242D01*
X397568Y2622992D01*
D02*
G37*
G36*
X143568D02*
X143897Y2622981D01*
X154295Y2621612D01*
X154615Y2621538D01*
X154939Y2621484D01*
X165069Y2618770D01*
X165378Y2618653D01*
X165691Y2618558D01*
X175380Y2614546D01*
X175671Y2614390D01*
X175969Y2614255D01*
X185051Y2609011D01*
X185320Y2608819D01*
X185598Y2608646D01*
X193917Y2602262D01*
X194155Y2602039D01*
X194412Y2601829D01*
X201827Y2594413D01*
X202037Y2594157D01*
X202260Y2593919D01*
X208644Y2585599D01*
X208818Y2585320D01*
X209009Y2585053D01*
X214253Y2575971D01*
X214389Y2575670D01*
X214544Y2575381D01*
X218557Y2565693D01*
X218652Y2565378D01*
X218768Y2565071D01*
X221482Y2554941D01*
X221536Y2554617D01*
X221610Y2554296D01*
X222979Y2543899D01*
X222990Y2543569D01*
X223022Y2543243D01*
Y2538000D01*
Y2338000D01*
X222926Y2337020D01*
X222640Y2336077D01*
X222176Y2335209D01*
X221551Y2334447D01*
X220790Y2333823D01*
X219921Y2333358D01*
X218978Y2333072D01*
X217998Y2332976D01*
X57998D01*
X57018Y2333072D01*
X56076Y2333358D01*
X55207Y2333823D01*
X54445Y2334447D01*
X53821Y2335209D01*
X53357Y2336077D01*
X53071Y2337020D01*
X52974Y2338000D01*
Y2538000D01*
Y2543243D01*
X53006Y2543569D01*
X53017Y2543899D01*
X54386Y2554296D01*
X54461Y2554616D01*
X54514Y2554941D01*
X57228Y2565071D01*
X57345Y2565380D01*
X57440Y2565693D01*
X61453Y2575381D01*
X61608Y2575673D01*
X61743Y2575971D01*
X66987Y2585053D01*
X67179Y2585322D01*
X67352Y2585599D01*
X73736Y2593919D01*
X73959Y2594157D01*
X74169Y2594413D01*
X81585Y2601829D01*
X81841Y2602039D01*
X82079Y2602262D01*
X90399Y2608646D01*
X90678Y2608820D01*
X90945Y2609011D01*
X100027Y2614255D01*
X100328Y2614391D01*
X100617Y2614545D01*
X110305Y2618558D01*
X110620Y2618654D01*
X110928Y2618770D01*
X121057Y2621484D01*
X121381Y2621538D01*
X121702Y2621612D01*
X132099Y2622981D01*
X132429Y2622992D01*
X132755Y2623024D01*
X143242D01*
X143568Y2622992D01*
D02*
G37*
D32*
X599998Y3150000D02*
D03*
Y3450000D02*
D03*
D33*
X905000Y4540000D02*
D03*
X1075000D02*
D03*
X2514999Y3659999D02*
D03*
X2684998D02*
D03*
Y2660001D02*
D03*
X2514999D02*
D03*
X2684998Y3160002D02*
D03*
X2514999D02*
D03*
D34*
X4536500Y299999D02*
D03*
X4409500D02*
D03*
X4790500D02*
D03*
X4663500D02*
D03*
D35*
X2514998Y3799999D02*
D03*
X2684998D02*
D03*
Y3300002D02*
D03*
X2514998D02*
D03*
X2684998Y2800001D02*
D03*
X2514998D02*
D03*
D36*
X4605000Y120000D02*
D03*
X4775000D02*
D03*
D37*
X2680000Y1370000D02*
D03*
Y900000D02*
D03*
D38*
X1900000Y300000D02*
D03*
Y6300000D02*
D03*
D39*
Y4824000D02*
D03*
Y1312000D02*
D03*
X300000Y1776000D02*
D03*
%TF.MD5,55bd5a4ccabe218389e72f84c91ecbe5*%
M02*
